<?xml version="1.0" standalone="no"?>
<!DOCTYPE svg PUBLIC "-//W3C//DTD SVG 20010904//EN"
 "http://www.w3.org/TR/2001/REC-SVG-20010904/DTD/svg10.dtd">
<svg version="1.0" xmlns="http://www.w3.org/2000/svg"
 width="900.000000pt" height="696.000000pt" viewBox="0 0 900.000000 696.000000"
 preserveAspectRatio="xMidYMid meet">
<metadata>
Created by potrace 1.10, written by Peter Selinger 2001-2011
</metadata>
<g transform="translate(0.000000,696.000000) scale(0.100000,-0.100000)"
fill="#000000" stroke="none">
<path d="M5453 6807 c-3 -5 -51 -7 -108 -5 -57 2 -106 0 -110 -4 -21 -20 22
-26 210 -27 113 -1 217 -6 232 -12 17 -6 30 -6 36 0 7 7 20 5 39 -5 23 -12 68
-14 222 -13 106 0 199 5 207 10 15 10 15 10 -51 14 -152 11 -217 18 -230 25
-9 5 -22 5 -31 -1 -19 -12 -76 -11 -84 1 -8 13 -62 13 -70 0 -4 -7 -11 -8 -18
-2 -7 6 -46 12 -87 15 -41 4 -92 7 -113 9 -22 2 -41 -1 -44 -5z"/>
<path d="M4755 6804 c-11 -2 -150 -5 -310 -6 -267 -3 -290 -4 -293 -20 -2 -12
3 -18 16 -18 10 0 21 2 24 5 3 3 214 6 469 6 255 0 483 3 507 6 79 10 43 24
-60 24 -57 -1 -124 -1 -150 -1 -27 0 -54 0 -60 0 -7 0 -38 1 -68 4 -30 2 -64
2 -75 0z"/>
<path d="M3969 6768 c-10 -4 -19 -12 -19 -18 0 -14 159 -5 174 10 11 11 1 13
-82 14 -29 1 -62 -2 -73 -6z"/>
<path d="M3510 6753 c-19 -7 -63 -12 -98 -12 -34 -1 -79 -8 -100 -17 -25 -10
-76 -16 -157 -18 -89 -2 -128 -6 -152 -19 -17 -9 -39 -14 -47 -11 -9 4 -22 1
-30 -5 -7 -6 -16 -8 -19 -5 -10 10 -210 -18 -234 -32 -12 -8 -42 -14 -66 -14
-24 0 -52 -7 -63 -15 -10 -8 -34 -15 -52 -15 -18 0 -42 -5 -53 -11 -11 -6 -38
-12 -60 -14 -21 -3 -49 -10 -62 -17 -24 -14 -42 -17 -131 -18 -36 -1 -73 -9
-96 -21 -20 -11 -72 -26 -115 -34 -44 -9 -87 -23 -96 -31 -10 -9 -22 -13 -28
-10 -12 8 -91 -32 -91 -46 0 -6 -11 -8 -25 -6 -20 4 -35 -6 -80 -53 -30 -31
-55 -65 -55 -73 0 -24 30 -19 52 9 12 15 30 25 46 25 15 0 35 7 45 15 11 7 36
16 57 20 22 4 44 13 51 21 6 8 18 14 25 14 16 0 49 17 76 39 10 7 27 11 40 8
12 -4 41 2 66 13 25 11 61 20 82 20 21 0 48 8 61 19 23 18 40 23 124 40 43 9
131 33 180 50 80 27 141 41 176 41 21 0 41 5 44 10 4 7 13 7 26 0 14 -8 21 -8
24 3 4 8 25 13 62 14 39 1 61 7 69 17 12 17 40 21 48 7 3 -5 18 -11 33 -13 16
-3 35 -8 44 -12 11 -5 24 0 36 13 25 27 90 43 193 48 47 3 90 9 96 14 10 8 62
13 266 23 25 1 53 7 61 14 9 8 47 11 108 10 58 -1 102 2 114 10 27 16 22 16
-185 17 -110 0 -188 -4 -210 -12z"/>
<path d="M6253 6763 c-22 -8 -14 -23 13 -23 15 0 24 5 22 12 -5 14 -18 18 -35
11z"/>
<path d="M6339 6741 c20 -15 29 -17 44 -7 15 8 21 8 24 -1 3 -7 12 -13 21 -13
13 0 12 4 -6 20 -23 22 -42 26 -42 10 0 -5 -7 -10 -15 -10 -8 0 -15 5 -15 10
0 6 -8 10 -17 10 -15 0 -14 -4 6 -19z"/>
<path d="M6545 6731 c-18 -7 -17 -9 10 -14 78 -16 186 -28 195 -22 6 4 16 2
23 -3 7 -5 46 -10 88 -10 42 0 86 -5 97 -11 11 -6 59 -11 106 -11 77 0 86 2
86 19 0 16 -11 19 -87 24 -49 4 -128 7 -177 7 -61 0 -95 5 -109 15 -23 16
-195 20 -232 6z"/>
<path d="M4310 6699 c-186 -7 -475 -27 -510 -35 -14 -3 -77 -10 -140 -14 -149
-11 -294 -33 -312 -47 -8 -7 -19 -8 -28 -3 -7 5 -24 4 -38 -1 -14 -5 -32 -9
-41 -8 -9 2 -39 -1 -67 -5 -33 -5 -66 -3 -92 5 -36 10 -45 9 -76 -9 -27 -16
-55 -22 -113 -23 -43 -1 -87 -8 -98 -14 -11 -7 -49 -13 -83 -14 -35 0 -73 -7
-85 -13 -12 -7 -38 -13 -57 -14 -64 -3 -165 -26 -182 -41 -11 -10 -26 -13 -42
-9 -14 3 -34 2 -43 -3 -27 -13 -103 -32 -153 -38 -25 -3 -53 -12 -62 -20 -9
-8 -30 -16 -46 -17 -17 -1 -45 -14 -63 -29 -18 -15 -38 -27 -45 -27 -12 0
-103 -41 -134 -60 -29 -18 -94 -50 -102 -50 -4 0 -30 -16 -57 -35 -26 -19 -57
-35 -69 -35 -11 0 -22 -7 -26 -15 -3 -8 -15 -15 -26 -15 -11 0 -23 -7 -27 -16
-4 -10 -13 -14 -27 -10 -24 6 -96 -57 -96 -85 0 -27 18 -32 32 -9 7 11 19 20
27 20 7 0 31 16 52 35 22 19 46 35 54 35 9 0 33 11 55 25 22 14 48 25 57 25
10 0 44 16 76 35 32 19 64 35 71 35 8 0 19 6 25 14 7 8 24 17 38 21 15 3 45
15 67 26 63 30 80 23 55 -23 -8 -15 -17 -18 -35 -14 -19 5 -31 0 -49 -20 -25
-27 -95 -64 -119 -64 -7 0 -23 -11 -36 -25 -13 -14 -38 -27 -55 -31 -18 -3
-52 -25 -79 -50 -31 -29 -57 -44 -74 -44 -18 0 -41 -16 -79 -56 -41 -42 -66
-60 -112 -75 -70 -24 -78 -37 -91 -144 -13 -113 -16 -130 -34 -165 -8 -17 -13
-37 -10 -45 3 -8 -6 -27 -20 -42 -14 -15 -26 -34 -26 -43 0 -24 -32 -103 -55
-135 -12 -16 -31 -50 -44 -75 -13 -24 -43 -66 -67 -93 -24 -27 -44 -56 -44
-64 0 -8 -14 -33 -31 -54 -33 -42 -54 -102 -43 -121 10 -16 5 -137 -7 -178 -6
-19 -32 -56 -57 -82 -27 -29 -52 -67 -63 -99 -23 -65 -25 -161 -4 -179 11 -9
12 -16 3 -30 -10 -15 -7 -22 20 -45 18 -15 32 -32 32 -39 0 -6 23 -34 51 -61
28 -28 59 -62 70 -77 l20 -28 -25 -37 c-15 -21 -26 -45 -26 -54 0 -9 -7 -22
-15 -29 -8 -7 -15 -24 -15 -38 0 -14 -7 -34 -17 -44 -9 -10 -16 -32 -15 -49 1
-23 -7 -39 -29 -58 -19 -16 -29 -35 -29 -53 0 -14 -6 -33 -13 -40 -8 -7 -16
-30 -20 -51 -5 -31 0 -45 28 -87 25 -38 35 -65 40 -113 7 -62 6 -64 -27 -97
-48 -48 -72 -119 -71 -208 1 -52 6 -78 17 -91 9 -10 16 -29 16 -43 0 -14 14
-42 30 -63 20 -25 30 -49 30 -70 0 -38 -44 -112 -72 -121 -10 -3 -18 -14 -18
-24 0 -11 -17 -28 -44 -44 -25 -14 -48 -35 -51 -46 -3 -11 -11 -20 -16 -20 -6
0 -47 -36 -92 -79 -45 -44 -117 -112 -159 -153 -95 -90 -128 -134 -128 -170 0
-15 -4 -28 -10 -28 -5 0 -10 -13 -10 -28 0 -16 -3 -31 -6 -35 -9 -9 -14 -94
-18 -295 l-3 -182 83 -78 c46 -42 96 -84 111 -92 16 -8 53 -40 84 -71 35 -36
68 -59 89 -64 19 -4 57 -30 91 -61 32 -30 68 -54 78 -54 11 0 29 -13 41 -30
15 -21 33 -32 61 -36 22 -4 42 -11 45 -15 3 -5 16 -9 28 -9 13 0 29 -7 36 -15
7 -8 25 -15 40 -15 15 0 35 -9 46 -21 14 -16 27 -20 51 -16 26 5 35 1 47 -19
9 -13 29 -26 44 -30 15 -3 42 -12 60 -20 17 -8 47 -20 65 -27 17 -7 52 -23 77
-35 25 -12 57 -22 71 -22 15 0 32 -7 39 -15 7 -9 20 -13 27 -10 8 2 29 -6 47
-20 18 -14 44 -25 58 -25 14 0 56 -15 94 -34 71 -35 154 -66 178 -66 8 0 16
-7 20 -15 3 -8 11 -15 19 -15 7 0 37 -12 65 -26 29 -14 59 -23 67 -20 8 3 19
-3 24 -13 7 -12 18 -17 33 -14 14 3 32 -4 46 -17 13 -13 30 -19 39 -16 9 4 30
-4 49 -19 19 -15 39 -23 44 -20 6 4 22 0 35 -9 13 -9 49 -19 79 -22 36 -4 56
-11 56 -20 0 -29 -121 -28 -179 2 -14 8 -36 14 -48 14 -12 0 -25 5 -28 11 -4
5 -17 9 -30 7 -12 -1 -28 2 -36 8 -17 13 -89 34 -116 34 -11 0 -26 6 -32 14
-6 8 -24 16 -39 19 -33 6 -88 25 -124 43 -14 8 -35 14 -46 14 -11 0 -25 7 -32
15 -7 8 -25 15 -40 15 -15 0 -33 7 -40 15 -7 8 -23 15 -35 15 -29 0 -71 17
-255 103 -41 19 -89 38 -107 42 -17 3 -37 13 -44 21 -6 8 -19 14 -28 14 -9 0
-27 6 -41 13 -14 8 -41 17 -59 20 -18 4 -46 16 -62 28 -16 11 -33 18 -37 15
-5 -3 -25 6 -45 19 -20 14 -43 25 -51 25 -8 0 -19 6 -23 14 -4 7 -27 23 -50
35 -23 11 -44 25 -48 31 -3 5 -14 10 -24 10 -21 0 -97 36 -106 50 -3 5 -19 10
-34 10 -17 0 -38 11 -56 30 -16 17 -37 30 -46 30 -10 0 -47 20 -83 45 -37 25
-72 45 -80 45 -7 0 -19 7 -26 15 -7 8 -19 15 -27 15 -7 0 -16 7 -19 15 -4 8
-17 15 -29 15 -13 0 -38 13 -56 29 -35 33 -77 47 -92 32 -15 -15 0 -30 38 -37
19 -3 53 -23 77 -45 24 -21 57 -41 74 -45 18 -3 48 -23 69 -44 21 -22 51 -42
66 -45 16 -4 38 -20 50 -36 11 -16 29 -29 39 -29 10 0 22 -4 25 -10 3 -5 24
-14 45 -20 22 -6 44 -20 50 -30 6 -11 21 -20 34 -20 13 0 40 -13 61 -30 21
-16 48 -30 61 -30 12 0 25 -4 29 -9 3 -6 30 -21 60 -35 29 -14 57 -31 60 -36
3 -6 17 -10 29 -10 13 0 40 -13 61 -30 21 -16 46 -30 56 -30 10 0 21 -5 25
-11 3 -6 17 -9 30 -6 16 3 31 -4 45 -19 14 -15 34 -24 52 -24 28 0 39 -4 124
-48 23 -12 47 -22 53 -22 6 0 49 -18 95 -40 46 -22 90 -40 97 -40 8 0 23 -7
34 -15 10 -8 29 -15 41 -15 12 0 25 -5 29 -11 10 -16 92 -49 123 -49 15 0 36
-7 47 -15 10 -8 29 -15 40 -15 12 0 27 -7 34 -15 8 -9 21 -13 32 -9 10 3 30
-2 44 -11 14 -9 33 -18 42 -20 9 -2 35 -11 57 -19 22 -8 47 -15 56 -16 25 0
45 -28 30 -43 -8 -8 -26 -7 -74 7 -34 10 -87 22 -117 28 -30 6 -64 17 -75 24
-11 8 -37 14 -58 14 -37 0 -109 30 -122 50 -3 5 -18 10 -33 10 -15 0 -58 12
-97 26 -38 14 -81 28 -94 31 -13 3 -43 16 -68 29 -24 13 -52 24 -62 24 -10 0
-30 9 -44 20 -14 11 -34 20 -45 20 -11 0 -25 7 -32 15 -7 8 -24 15 -38 15 -14
0 -46 13 -71 29 -53 34 -124 50 -136 31 -10 -16 20 -40 48 -40 11 0 35 -11 53
-25 18 -14 37 -25 42 -25 5 0 15 -7 22 -15 7 -8 24 -15 39 -15 14 -1 44 -12
66 -25 42 -26 44 -27 110 -52 22 -8 53 -21 68 -29 16 -8 42 -14 58 -14 17 0
32 -6 35 -15 4 -8 18 -15 33 -15 15 0 36 -7 47 -15 10 -8 31 -15 45 -15 15 0
32 -7 39 -15 7 -8 25 -15 40 -15 15 0 33 -7 40 -15 7 -9 20 -15 29 -14 21 3
133 -30 146 -43 14 -13 -25 -40 -45 -32 -8 4 -42 10 -75 15 -33 4 -74 15 -90
23 -17 9 -40 16 -52 16 -12 0 -25 5 -28 10 -3 6 -18 10 -33 10 -15 0 -36 7
-46 15 -11 8 -28 15 -37 15 -10 0 -30 6 -46 14 -56 28 -104 46 -122 46 -10 0
-24 7 -31 15 -7 8 -24 15 -39 15 -15 0 -36 6 -47 14 -11 8 -49 24 -84 36 -35
12 -73 28 -84 36 -11 8 -28 14 -38 14 -9 0 -38 11 -64 25 -26 14 -70 32 -98
40 -50 15 -95 34 -146 61 -14 7 -44 22 -67 33 -24 11 -43 25 -43 31 0 5 -13
10 -29 10 -17 0 -33 4 -36 10 -3 5 -31 22 -60 36 -30 14 -57 29 -60 35 -4 5
-21 9 -40 9 -19 0 -38 6 -42 13 -4 7 -28 21 -53 31 -25 10 -55 27 -68 39 -19
17 -25 19 -32 8 -11 -19 10 -51 32 -51 10 0 28 -10 40 -22 13 -13 32 -23 44
-23 12 -1 48 -20 81 -42 33 -23 80 -47 104 -54 24 -7 56 -21 71 -31 14 -10 36
-18 48 -18 12 0 33 -13 47 -30 13 -16 33 -30 43 -30 11 0 31 -11 46 -25 21
-20 30 -22 46 -14 15 8 29 4 66 -19 26 -16 63 -35 83 -41 20 -6 50 -22 68 -35
19 -14 40 -22 51 -19 11 3 31 -2 45 -11 13 -9 33 -16 44 -16 11 0 40 -13 64
-30 25 -16 52 -30 60 -30 8 0 20 -7 27 -15 7 -8 22 -15 34 -15 12 0 31 -7 42
-15 10 -8 31 -15 45 -15 15 0 32 -7 39 -15 7 -8 25 -15 40 -15 15 0 33 -7 40
-15 7 -8 19 -15 27 -15 8 0 29 -6 46 -14 76 -32 90 -36 109 -30 12 3 24 1 28
-6 11 -19 93 -19 180 -3 41 9 103 17 137 20 36 3 67 11 74 19 6 8 28 14 48 14
20 0 41 4 47 8 5 5 34 14 64 22 30 7 73 21 95 30 58 26 105 40 131 40 13 0 27
6 31 14 8 13 30 19 113 33 19 3 41 10 48 16 16 13 102 18 102 5 0 -4 -7 -8
-16 -8 -9 0 -27 -9 -41 -20 -14 -11 -32 -20 -40 -20 -8 0 -27 -6 -41 -14 -15
-7 -45 -19 -67 -26 -22 -7 -47 -18 -55 -25 -8 -6 -42 -17 -75 -24 -33 -7 -67
-19 -75 -25 -23 -19 -96 -38 -222 -58 -54 -9 -71 -16 -84 -36 l-16 -25 33 7
c19 4 59 9 89 12 30 3 71 11 90 19 19 7 61 19 93 26 33 7 69 21 82 31 13 10
34 18 48 18 13 0 30 7 37 15 7 9 21 13 30 10 15 -5 157 41 202 66 10 5 26 9
37 9 11 0 40 9 66 20 26 11 55 20 65 20 10 0 20 6 23 14 5 12 51 27 117 40 8
1 29 8 45 15 56 24 120 41 155 41 19 0 50 4 68 9 18 6 39 8 47 5 22 -9 -12
-54 -40 -54 -12 0 -34 -9 -48 -20 -14 -11 -33 -20 -43 -20 -24 0 -78 -18 -139
-46 -28 -12 -63 -26 -78 -29 -15 -4 -30 -11 -33 -16 -3 -5 -20 -9 -38 -9 -19
0 -39 -7 -46 -15 -7 -8 -28 -15 -47 -15 -18 0 -36 -6 -38 -13 -4 -8 -32 -13
-82 -14 -43 -1 -87 -6 -98 -11 -11 -6 -47 -17 -80 -27 -33 -9 -74 -21 -91 -26
-17 -5 -37 -9 -46 -9 -9 0 -21 -7 -28 -15 -7 -8 -27 -15 -46 -15 -36 0 -54
-17 -33 -31 16 -10 105 -1 134 14 20 10 36 15 165 43 160 34 186 41 210 51 28
12 79 26 160 44 30 7 59 16 64 21 6 4 19 8 30 8 10 0 43 11 73 25 29 14 73 29
97 34 24 4 54 15 67 24 13 10 33 17 44 17 11 0 29 7 39 15 11 8 28 15 38 15 9
0 33 9 53 20 20 11 43 20 53 20 9 0 35 12 57 25 22 14 46 25 53 25 7 0 28 11
46 25 18 14 42 25 52 25 11 0 29 6 40 14 11 8 31 14 44 15 14 0 39 2 55 3 48
5 36 -22 -19 -43 -27 -10 -54 -23 -60 -29 -5 -5 -20 -10 -31 -10 -12 0 -40
-16 -62 -35 -31 -26 -50 -35 -77 -35 -23 0 -39 -5 -42 -15 -4 -9 -19 -15 -36
-15 -18 0 -39 -10 -54 -25 -14 -14 -29 -23 -34 -20 -12 7 -52 -13 -63 -31 -4
-8 -22 -14 -40 -14 -18 0 -43 -9 -57 -20 -14 -11 -33 -20 -42 -20 -10 0 -43
-11 -74 -25 -31 -14 -73 -25 -94 -25 -21 0 -43 -6 -49 -14 -6 -8 -26 -16 -44
-19 -18 -3 -50 -10 -72 -17 -22 -6 -53 -13 -70 -15 -83 -12 -107 -19 -119 -36
-7 -11 -20 -17 -28 -14 -22 9 -74 -13 -61 -26 17 -17 75 -14 88 4 9 13 28 17
73 17 33 0 64 5 67 10 3 6 16 10 28 10 12 0 46 9 75 20 29 11 63 20 75 20 13
0 32 7 43 15 10 8 33 15 50 15 17 0 37 7 44 15 7 8 25 15 40 15 15 0 33 7 40
15 7 8 27 15 46 15 18 0 35 4 39 9 8 13 65 41 84 41 9 0 25 7 35 15 11 8 30
15 42 15 13 0 29 7 37 15 8 8 34 19 57 24 23 5 47 14 53 20 6 6 23 11 37 11
16 0 37 12 55 30 17 18 39 30 54 30 14 1 39 11 54 24 17 14 37 21 51 19 15 -3
30 4 47 21 15 16 35 26 54 26 18 0 39 10 53 25 13 13 39 29 60 36 20 7 54 25
76 40 21 16 49 29 61 29 12 0 33 10 47 22 31 28 64 48 79 48 6 0 39 22 73 49
33 26 71 51 84 55 12 4 22 11 22 15 0 4 17 17 38 29 21 11 47 31 57 42 40 45
195 101 195 71 0 -16 -93 -101 -111 -101 -10 0 -30 -10 -46 -23 -59 -47 -122
-87 -137 -87 -9 0 -33 -15 -53 -34 -21 -18 -60 -44 -88 -56 -27 -12 -64 -33
-82 -46 -17 -13 -36 -24 -42 -24 -5 0 -29 -13 -53 -28 -24 -16 -59 -35 -78
-42 -19 -7 -44 -22 -56 -32 -11 -10 -24 -18 -28 -18 -7 0 -95 -42 -126 -60
-42 -24 -129 -60 -147 -60 -10 0 -28 -7 -39 -15 -10 -8 -28 -15 -40 -15 -11 0
-33 -13 -49 -30 -21 -22 -34 -28 -51 -24 -15 4 -29 -1 -44 -16 -12 -12 -40
-25 -61 -27 -22 -3 -42 -10 -45 -14 -3 -5 -11 -9 -19 -9 -8 0 -51 -17 -97 -39
-46 -21 -136 -56 -201 -77 -70 -23 -125 -47 -138 -60 l-21 -22 39 2 c39 3 45
4 103 26 19 7 47 15 62 17 15 3 33 11 39 19 6 8 28 14 49 14 21 0 43 7 50 15
7 8 19 15 26 15 8 0 40 14 71 30 31 17 62 30 70 30 8 0 26 9 40 20 14 11 35
20 47 21 11 0 35 9 51 20 31 20 34 21 100 46 51 19 172 72 207 89 14 8 36 14
47 14 12 0 21 4 21 9 0 4 33 23 73 41 39 17 84 43 99 57 14 14 31 22 37 19 6
-4 27 5 46 20 19 14 61 39 93 54 31 15 63 34 71 43 7 10 20 17 28 17 21 0 95
45 123 75 14 15 35 25 51 25 16 0 32 6 36 13 13 20 85 71 128 90 22 10 54 32
71 48 17 16 53 42 81 57 28 15 71 41 95 58 62 43 158 56 158 20 0 -14 -87 -72
-122 -80 -14 -3 -53 -32 -85 -63 -32 -32 -75 -64 -96 -71 -20 -7 -52 -27 -70
-43 -17 -16 -43 -33 -57 -36 -33 -8 -67 -30 -106 -66 -18 -16 -40 -27 -51 -25
-11 1 -36 -9 -56 -25 -19 -15 -41 -27 -47 -27 -16 0 -95 -47 -110 -65 -7 -8
-23 -15 -36 -15 -13 0 -39 -14 -58 -31 -24 -20 -42 -29 -54 -25 -12 4 -25 -1
-36 -13 -10 -11 -43 -29 -74 -42 -31 -12 -71 -35 -87 -51 -20 -18 -42 -28 -61
-28 -20 0 -39 -9 -54 -25 -14 -15 -35 -25 -52 -25 -15 0 -37 -9 -48 -20 -11
-11 -31 -20 -44 -20 -13 0 -35 -9 -49 -20 -14 -11 -33 -20 -43 -20 -9 0 -32
-11 -50 -25 -18 -14 -45 -25 -61 -25 -15 0 -37 -7 -47 -15 -11 -8 -27 -15 -36
-15 -8 0 -32 -11 -52 -25 -20 -14 -44 -25 -52 -25 -22 0 -66 -22 -66 -33 0
-16 138 -2 159 17 9 9 27 16 38 16 11 0 32 9 46 20 25 20 28 20 134 5 59 -9
122 -17 138 -18 17 -1 35 -5 40 -9 6 -3 57 -7 115 -9 58 -2 110 -7 116 -11 6
-4 24 -7 40 -6 16 0 78 -4 139 -10 60 -6 112 -9 116 -6 4 2 44 -2 88 -10 68
-11 87 -12 118 0 21 7 70 13 110 14 69 0 96 11 76 31 -10 10 -64 14 -343 25
-102 4 -190 10 -195 15 -6 4 -17 4 -25 -1 -8 -5 -21 -5 -29 0 -9 4 -68 11
-131 15 -65 4 -127 13 -143 22 -15 7 -37 13 -50 12 -58 -5 -97 1 -97 16 0 8 8
15 18 15 10 0 27 7 38 15 20 15 76 20 88 8 4 -4 31 -9 59 -9 89 -3 165 -12
184 -22 10 -5 24 -7 31 -5 7 3 20 1 30 -3 15 -7 97 -14 172 -14 14 -1 48 -5
75 -11 51 -10 119 -15 358 -24 76 -3 142 -6 145 -8 14 -8 183 18 185 28 1 6
-36 12 -88 16 -49 3 -103 10 -120 17 -17 6 -110 13 -216 15 -108 3 -194 9
-206 15 -11 6 -83 14 -159 17 -76 4 -143 9 -148 13 -6 3 -31 10 -56 14 -91 15
-110 21 -110 33 0 12 75 39 88 31 4 -2 48 -7 97 -10 50 -4 104 -11 120 -16 17
-6 89 -12 160 -14 72 -2 142 -9 157 -14 15 -6 60 -12 100 -12 40 -1 105 -6
143 -11 75 -9 404 -22 494 -19 59 1 121 22 121 40 0 8 -32 11 -107 10 -111 -2
-304 12 -336 25 -9 4 -23 2 -30 -3 -7 -6 -18 -7 -26 -3 -7 5 -40 7 -72 5 -33
-2 -72 1 -86 7 -15 5 -61 10 -104 10 -48 0 -84 5 -95 14 -12 8 -25 10 -34 5
-9 -5 -23 -5 -31 1 -7 5 -45 9 -84 9 -38 0 -86 4 -105 9 -19 5 -52 12 -72 16
-59 10 -49 42 12 37 87 -7 131 -11 138 -16 4 -2 14 -1 22 4 8 5 21 5 31 0 9
-5 83 -12 165 -16 82 -3 167 -12 189 -18 28 -9 130 -14 330 -15 159 -1 296 -6
303 -10 8 -4 37 -4 64 0 28 5 55 6 60 3 16 -10 118 -13 124 -3 3 5 11 6 17 2
6 -4 24 -6 39 -5 14 1 30 -2 33 -8 4 -6 11 -8 16 -4 9 5 144 17 177 15 6 -1
19 -1 27 -1 8 0 22 0 30 0 8 0 21 0 28 0 6 0 30 3 52 7 31 7 41 13 43 31 3 21
0 23 -30 21 -18 -1 -41 2 -50 6 -9 4 -23 3 -30 -2 -18 -11 -969 -14 -983 -3
-11 9 -118 16 -290 20 -55 2 -107 6 -115 10 -14 7 -143 21 -197 22 -28 0 -29
9 -3 33 14 13 23 15 32 7 8 -6 29 -7 58 -2 25 4 52 5 60 0 14 -7 344 -27 450
-26 25 0 83 -1 130 -2 47 -1 92 -1 100 -1 8 1 62 -2 120 -6 58 -4 110 -7 115
-6 6 0 76 2 156 5 80 3 183 10 230 15 46 6 134 13 194 16 61 3 121 8 135 10
14 2 75 5 135 6 111 2 189 20 200 47 6 17 -41 19 -215 8 -52 -4 -124 -11 -160
-16 -36 -5 -114 -10 -175 -11 -60 -2 -128 -6 -150 -11 -22 -5 -170 -8 -330 -8
-159 0 -406 0 -547 0 -141 0 -259 3 -262 8 -3 5 -42 10 -87 10 -44 1 -85 5
-90 8 -31 19 30 24 294 25 161 0 315 1 342 1 28 1 138 0 245 -1 107 -1 219 3
249 8 29 6 81 11 115 11 33 0 100 6 148 14 48 7 93 9 100 5 7 -5 19 -2 28 6
10 9 21 11 30 5 8 -5 21 -5 31 0 9 5 63 10 120 10 57 1 149 7 204 15 55 7 147
16 205 18 58 3 119 11 135 18 28 11 73 19 103 19 6 0 19 0 27 0 8 0 22 0 30 0
8 0 21 0 28 -1 6 0 37 2 67 4 43 4 59 11 77 32 13 14 21 31 18 36 -8 12 -52
12 -59 0 -3 -5 -22 -12 -43 -16 -20 -4 -42 -14 -48 -22 -8 -11 -17 -13 -26 -7
-8 4 -24 7 -36 6 -11 -2 -24 1 -27 7 -7 11 -32 5 -54 -12 -7 -5 -83 -12 -170
-14 -86 -3 -165 -9 -174 -14 -9 -5 -51 -9 -92 -10 -42 -1 -93 -5 -114 -10 -20
-6 -92 -11 -159 -13 -100 -3 -123 -1 -123 10 0 8 5 14 12 14 6 0 20 8 30 17
15 14 40 17 129 17 70 1 112 5 117 12 4 7 27 12 51 12 51 1 113 10 156 22 17
5 71 11 120 14 102 5 235 25 251 37 6 5 15 4 21 -2 8 -8 26 -7 65 4 29 9 80
16 114 16 33 0 77 8 98 16 21 9 44 14 51 12 19 -8 108 14 128 31 27 23 21 32
-23 32 -22 0 -40 -4 -40 -9 0 -5 -25 -8 -55 -6 -30 1 -58 -1 -61 -6 -3 -5 -28
-9 -55 -9 -28 0 -60 -5 -71 -11 -20 -11 -123 -22 -178 -20 -14 1 -45 -3 -70
-9 -108 -25 -255 -40 -287 -29 -14 5 -25 3 -33 -7 -14 -16 -175 -21 -185 -4
-7 11 70 35 102 32 12 -1 24 2 28 8 3 5 28 10 54 10 26 0 56 7 67 15 10 8 31
15 45 15 15 0 40 7 55 15 16 8 50 15 75 15 25 0 54 7 65 15 11 8 42 15 74 15
30 0 62 4 69 9 9 6 22 6 32 1 11 -7 21 -5 28 4 10 12 27 16 125 31 54 9 106
26 106 35 0 18 -19 20 -82 10 -34 -6 -74 -13 -88 -15 -14 -2 -59 -11 -100 -20
-67 -15 -188 -35 -305 -51 -22 -4 -44 -10 -49 -15 -6 -5 -41 -9 -79 -9 -59 0
-68 2 -63 16 3 9 6 18 6 20 0 2 8 4 19 4 10 0 24 6 30 14 6 7 39 17 73 20 34
4 71 14 82 22 11 8 35 14 54 14 18 0 49 7 69 15 19 8 52 15 72 15 20 0 45 6
56 14 11 8 43 16 70 19 28 2 77 12 110 21 33 10 89 23 125 30 68 14 130 41
130 57 0 11 -71 5 -120 -10 -19 -6 -49 -11 -66 -11 -16 0 -39 -7 -50 -15 -10
-8 -31 -15 -45 -15 -14 0 -34 -7 -45 -15 -11 -8 -41 -15 -71 -15 -28 0 -55 -4
-58 -10 -3 -5 -16 -10 -28 -9 -23 0 -83 -12 -152 -30 -85 -22 -109 -7 -58 37
21 17 35 22 56 18 16 -3 41 1 57 9 16 8 46 15 68 15 21 0 47 7 58 15 10 8 36
15 57 15 41 0 160 26 189 41 10 5 28 9 40 9 29 1 160 35 187 49 11 6 31 11 44
11 32 0 52 23 34 39 -16 12 -62 7 -120 -15 -20 -8 -54 -14 -75 -14 -20 0 -43
-4 -51 -9 -9 -6 -21 -5 -32 2 -15 9 -21 8 -32 -7 -15 -21 -67 -34 -187 -46
-47 -5 -95 -15 -108 -22 -17 -9 -25 -9 -34 0 -9 9 -7 13 8 18 10 3 28 10 39
14 20 9 53 18 155 41 30 6 63 17 72 22 12 8 21 7 32 -2 13 -11 18 -10 31 3 9
9 33 16 53 16 20 1 55 7 77 15 22 8 52 15 66 15 15 0 32 7 39 15 7 9 20 13 30
10 18 -6 105 28 133 53 9 8 17 22 17 30 0 16 -13 15 -140 -13 -41 -9 -118 -23
-170 -31 -52 -8 -102 -18 -110 -23 -23 -12 -117 -24 -130 -16 -16 10 7 35 32
35 10 0 29 6 41 14 12 7 48 16 80 20 32 3 65 11 75 16 9 5 44 14 77 19 33 6
78 14 100 20 22 6 54 13 70 17 17 4 38 13 47 21 9 8 21 12 27 9 20 -13 90 33
91 58 0 12 -108 -3 -145 -19 -43 -20 -150 -46 -222 -54 -34 -3 -68 -12 -75
-19 -15 -15 -64 -16 -74 -1 -15 25 44 51 176 80 25 5 62 16 82 24 21 8 44 12
52 9 8 -3 17 -1 21 5 3 6 17 11 31 11 14 0 37 6 52 14 15 7 47 16 70 20 54 8
113 38 129 64 11 18 9 20 -19 26 -20 4 -37 1 -47 -8 -16 -14 -26 -16 -138 -40
-34 -7 -68 -17 -75 -23 -7 -6 -41 -13 -75 -16 -47 -5 -62 -3 -66 7 -7 18 1 26
29 26 12 0 24 7 28 15 3 8 14 15 25 15 11 0 23 5 27 11 3 6 17 9 30 6 15 -2
30 3 40 14 10 11 24 19 33 19 9 0 42 9 74 20 31 11 70 20 86 20 15 0 34 7 41
15 7 8 25 15 40 15 26 0 60 26 60 47 0 22 -33 24 -55 3 -16 -15 -35 -20 -76
-20 -33 0 -63 -6 -75 -15 -10 -8 -27 -15 -37 -15 -10 0 -29 -7 -42 -16 -50
-33 -76 13 -32 54 13 12 35 22 48 22 14 0 34 7 45 15 10 8 33 15 50 15 17 0
37 7 44 15 7 9 20 15 29 13 19 -3 146 56 156 72 4 6 18 15 32 21 13 5 23 15
20 22 -6 16 -55 12 -76 -6 -9 -8 -41 -22 -71 -32 -30 -10 -60 -22 -67 -27 -28
-23 -45 20 -17 43 9 7 20 23 25 36 5 13 15 23 23 23 9 0 22 13 30 29 9 16 33
43 55 60 24 19 41 43 46 63 13 59 17 278 5 293 -18 21 -15 347 3 376 8 13 17
39 21 58 5 30 23 55 97 137 10 12 19 25 19 29 0 10 44 65 116 143 55 60 62 72
67 121 4 29 11 58 16 65 10 12 20 211 11 220 -3 2 -5 40 -4 83 1 49 -4 88 -12
105 -8 15 -13 37 -13 50 2 35 -9 95 -21 117 -5 11 -10 37 -10 58 0 22 -7 48
-15 59 -8 10 -15 34 -15 52 0 20 -6 35 -15 38 -10 4 -15 20 -15 44 0 21 -7 43
-15 50 -8 7 -15 18 -15 25 0 7 -13 37 -30 68 -16 31 -30 65 -30 76 0 10 -6 24
-14 30 -8 7 -16 28 -19 49 -3 20 -7 46 -9 57 -2 14 3 20 17 20 15 0 21 -9 26
-36 3 -20 17 -49 32 -65 15 -16 30 -44 33 -62 4 -18 15 -39 25 -45 11 -7 19
-23 19 -37 0 -14 9 -43 20 -65 11 -22 20 -51 20 -66 0 -15 7 -32 15 -39 8 -7
15 -25 15 -40 0 -15 7 -33 15 -40 8 -6 14 -24 14 -38 -1 -62 33 -158 52 -147
5 4 9 37 9 74 0 37 5 72 11 78 7 7 9 46 5 109 -18 354 -24 435 -33 446 -6 7
-11 40 -12 72 0 33 -5 73 -11 90 -13 40 -29 191 -23 214 2 10 -3 24 -11 31
-10 9 -16 30 -16 56 0 26 -6 48 -15 55 -10 8 -15 30 -15 61 0 26 -5 51 -11 55
-6 3 -8 15 -6 26 11 40 -35 98 -78 98 -26 0 -44 13 -109 79 -63 65 -76 84 -71
103 4 17 -3 34 -29 64 -18 22 -41 55 -50 74 -21 43 -38 73 -55 93 -19 24 -5
37 39 37 35 0 40 -3 60 -44 11 -24 34 -63 50 -85 17 -23 30 -49 30 -59 0 -9
25 -44 55 -77 38 -40 55 -67 55 -85 0 -25 16 -50 31 -50 4 0 10 14 14 31 5 24
2 36 -15 54 -12 12 -24 38 -27 56 -2 19 -13 43 -24 55 -10 11 -19 24 -19 29 0
5 -12 26 -26 47 -27 38 -27 68 0 68 8 0 21 -7 28 -16 7 -8 23 -25 36 -37 12
-12 20 -28 17 -37 -3 -9 5 -26 19 -39 14 -13 28 -38 31 -55 4 -17 20 -59 37
-93 18 -37 27 -69 24 -81 -4 -11 0 -24 9 -32 8 -7 15 -27 15 -44 1 -17 7 -42
15 -56 8 -14 14 -35 15 -48 0 -12 4 -30 9 -40 20 -39 66 -235 95 -402 13 -75
18 -116 32 -250 3 -32 7 -267 5 -315 0 -11 2 -92 5 -181 5 -130 3 -167 -9
-190 -10 -22 -14 -66 -13 -176 1 -82 5 -149 10 -150 5 -2 15 20 23 47 8 28 21
57 29 66 8 8 14 24 14 35 0 11 7 30 16 42 8 12 13 31 9 41 -3 11 -2 22 3 25 7
4 17 293 15 431 -2 96 -15 231 -23 239 -6 6 -10 38 -10 72 0 33 -5 74 -10 90
-6 16 -15 58 -20 94 -13 86 -35 201 -42 220 -4 8 -9 37 -12 64 -3 27 -12 59
-19 70 -8 12 -24 55 -36 96 -13 41 -27 83 -32 92 -5 10 -9 28 -9 41 0 13 -7
32 -15 43 -8 10 -15 33 -15 50 0 17 -7 37 -15 44 -8 7 -15 25 -15 41 0 15 -4
30 -9 33 -5 3 -12 25 -15 50 -4 24 -13 52 -21 62 -8 11 -15 32 -15 48 0 28 1
28 42 22 53 -9 55 -11 34 -35 -22 -25 -14 -91 15 -117 10 -9 19 -24 19 -33 0
-9 9 -31 20 -49 11 -18 20 -42 20 -53 0 -27 30 -119 47 -144 7 -11 13 -31 13
-46 0 -15 6 -29 14 -32 8 -3 15 -28 18 -64 7 -68 25 -113 46 -113 12 0 13 9 8
46 -3 26 -6 57 -6 70 0 13 -8 32 -18 42 -10 10 -23 47 -29 83 -6 35 -19 89
-28 119 -27 88 -35 123 -35 155 0 18 -8 38 -20 48 -11 9 -20 25 -20 34 0 10
-7 32 -16 48 -9 17 -22 51 -30 76 -19 64 -37 77 -107 76 -53 0 -61 3 -87 31
-20 22 -34 29 -49 25 -13 -3 -27 0 -34 10 -7 8 -31 17 -55 20 -24 3 -51 12
-61 21 -10 9 -35 16 -58 16 -25 0 -63 11 -93 26 -76 38 -107 45 -121 28 -16
-20 -26 -18 -51 11 -12 14 -29 25 -39 25 -9 0 -22 7 -29 15 -12 14 -15 14 -31
-1 -16 -15 -23 -15 -47 -5 -15 7 -62 16 -105 19 -53 3 -80 9 -84 18 -3 8 -16
14 -28 14 -13 0 -36 6 -52 14 -15 7 -44 20 -63 28 -19 9 -46 20 -60 27 -57 26
-142 44 -265 55 -71 7 -138 16 -147 20 -16 7 -44 6 -191 -10 -35 -4 -63 -2
-71 5 -8 7 -24 7 -47 2 -19 -5 -91 -11 -161 -14 -80 -4 -137 -11 -155 -20 -15
-8 -48 -17 -73 -20 -25 -3 -60 -13 -78 -22 -18 -9 -40 -14 -49 -11 -9 4 -23 0
-32 -8 -9 -8 -44 -16 -81 -18 -36 -2 -72 -6 -80 -8 -11 -4 -15 3 -15 25 0 26
4 30 38 37 21 4 51 15 67 23 16 8 39 15 50 15 13 0 20 5 17 13 -7 20 -356 12
-378 -10 -15 -15 -3 -33 21 -33 25 0 35 -19 19 -35 -11 -10 -26 -11 -64 -3
-27 5 -61 9 -75 10 -13 0 -39 13 -58 29 -38 33 -34 32 -66 18 -19 -9 -32 -9
-54 0 -16 7 -49 12 -73 13 -24 0 -49 5 -56 10 -7 5 -17 7 -23 3 -6 -4 -16 -2
-23 3 -7 5 -79 12 -162 16 -82 3 -163 9 -180 14 -16 5 -60 8 -96 7 -70 -2
-131 17 -93 29 25 8 271 11 522 6 144 -2 210 -7 228 -17 34 -17 89 -17 117 2
18 11 30 12 62 3 22 -6 57 -10 78 -9 52 1 80 1 255 -5 98 -3 158 -1 166 5 9 7
16 7 24 -1 10 -10 124 -11 376 -4 22 0 41 7 43 14 4 9 -24 12 -116 12 -70 0
-122 4 -126 10 -4 6 -91 10 -233 10 -125 0 -244 4 -265 9 -22 5 -53 7 -70 4
-40 -6 -86 -4 -112 4 -11 4 -30 6 -42 4 -11 -1 -24 3 -28 8 -4 7 -12 8 -23 2
-24 -13 -72 21 -51 35 13 8 246 9 612 2 93 -2 171 0 173 4 12 19 -48 27 -216
29 -102 2 -190 7 -197 11 -6 5 -14 5 -17 0 -8 -14 -115 -14 -153 0 -23 8 -39
9 -56 1 -17 -8 -29 -7 -48 3 -33 18 -135 18 -142 0 -7 -17 -76 -19 -96 -3 -15
13 -726 17 -1011 6z m733 -24 c17 -11 63 -14 195 -16 156 -1 174 -3 182 -20 6
-10 10 -20 10 -23 0 -11 -72 -27 -92 -20 -13 4 -72 8 -133 9 -60 1 -118 5
-128 9 -10 5 -33 2 -57 -8 -43 -17 -135 -22 -144 -7 -3 4 -38 6 -78 3 -154
-11 -348 -13 -365 -3 -12 6 -24 6 -37 -1 -11 -6 -79 -10 -155 -10 -87 0 -154
-4 -186 -13 -45 -13 -152 -23 -305 -29 -30 -1 -62 -5 -70 -8 -8 -3 -73 -11
-145 -17 -149 -12 -365 -36 -420 -47 -35 -6 -37 -5 -33 17 3 21 10 25 63 32
33 5 92 14 130 22 91 17 275 37 395 42 52 3 100 9 107 14 10 9 192 26 358 34
28 1 55 4 60 5 14 3 92 6 434 14 180 4 299 11 307 17 9 7 19 7 32 0 15 -8 23
-7 32 4 15 18 16 18 43 0z m-712 -162 c22 -22 -2 -40 -64 -47 -33 -3 -66 -11
-71 -16 -6 -6 -21 -10 -33 -10 -13 0 -34 -7 -48 -16 -18 -12 -28 -13 -44 -5
-13 7 -22 8 -26 1 -3 -5 -15 -10 -26 -10 -11 0 -37 -11 -57 -25 -20 -14 -45
-25 -55 -25 -10 0 -42 -22 -71 -50 -29 -27 -58 -50 -64 -50 -6 0 -20 -12 -31
-26 -11 -14 -37 -39 -57 -55 -39 -31 -62 -31 -96 -1 -26 22 -22 39 12 51 37
12 38 22 4 38 -18 8 -32 9 -45 3 -27 -15 -56 -12 -101 11 -40 20 -41 22 -22
36 11 8 30 12 46 9 15 -3 40 1 55 9 15 8 54 15 85 15 35 0 58 5 60 12 3 8 18
11 39 10 19 -2 66 7 104 19 39 11 76 23 84 25 36 11 -11 18 -137 18 -115 1
-137 3 -137 16 0 23 46 29 360 50 83 6 161 14 175 19 33 10 149 6 161 -6z
m-1361 -28 c15 -18 6 -45 -15 -45 -18 0 -30 24 -21 45 7 19 20 19 36 0z m-71
-41 c-7 -8 -21 -11 -35 -8 -15 4 -24 2 -24 -5 0 -6 -12 -16 -26 -21 -42 -16
-197 -39 -226 -33 -42 8 -34 30 15 38 23 4 47 11 52 15 10 7 48 17 95 25 115
19 136 20 148 12 9 -7 9 -13 1 -23z m691 -10 c0 -23 -2 -24 -55 -21 -30 2 -57
6 -60 9 -8 8 44 40 55 33 6 -3 18 -2 27 4 23 12 33 5 33 -25z m-182 -26 c-3
-19 -10 -22 -61 -25 -32 -2 -75 -10 -94 -18 -26 -11 -53 -13 -100 -9 -54 6
-63 10 -63 27 0 16 5 18 27 14 15 -3 38 -1 52 4 13 6 53 10 88 11 35 0 66 5
69 9 3 5 23 9 45 9 36 0 40 -2 37 -22z m1306 -7 c12 -18 -6 -39 -57 -65 -64
-33 -87 -50 -87 -65 0 -21 56 -12 80 15 18 18 31 23 47 19 13 -3 31 -1 40 3
63 31 92 43 123 48 19 4 42 13 51 21 17 14 67 24 134 27 36 1 40 -1 40 -24 0
-21 -5 -25 -35 -28 -19 -2 -39 -8 -44 -13 -6 -5 -19 -9 -30 -9 -12 0 -34 -7
-50 -15 -15 -8 -36 -15 -46 -15 -9 0 -29 -9 -43 -20 -14 -11 -38 -20 -54 -20
-19 0 -39 -10 -57 -29 -16 -17 -40 -31 -54 -33 -14 -2 -27 -9 -30 -15 -6 -20
49 -15 83 7 17 11 42 20 57 20 15 0 30 5 33 10 3 6 21 10 38 10 18 0 41 7 51
15 11 8 29 15 41 15 12 0 25 3 29 7 4 4 22 8 39 9 18 1 69 4 115 8 69 6 82 4
82 -8 0 -9 -9 -20 -19 -26 -19 -10 -119 -37 -176 -47 -16 -3 -39 -12 -50 -19
-11 -8 -31 -14 -44 -14 -14 0 -44 -9 -68 -21 -106 -51 1 -59 140 -10 35 12 70
18 87 15 20 -4 37 0 57 14 19 13 34 18 43 12 8 -5 25 -3 41 6 29 14 61 18 72
8 9 -10 -72 -84 -86 -78 -7 2 -27 -1 -43 -7 -16 -7 -37 -11 -46 -10 -9 1 -31
-5 -48 -14 -17 -9 -36 -13 -42 -9 -6 4 -16 0 -23 -9 -6 -8 -26 -17 -45 -19
-18 -2 -35 -9 -38 -15 -6 -19 66 -17 84 2 17 17 60 20 69 6 7 -12 -135 -159
-171 -178 -36 -18 -45 -17 -96 12 -46 26 -72 27 -392 24 -78 -1 -89 12 -46 56
19 19 39 35 46 35 6 0 17 7 24 15 7 8 21 15 31 15 23 0 36 20 19 30 -16 10
-49 1 -82 -22 -14 -10 -33 -18 -42 -18 -9 0 -34 -11 -56 -25 -75 -47 -111 -21
-44 32 19 15 48 40 64 56 15 15 32 27 37 27 5 0 19 13 31 30 12 16 44 39 71
51 60 25 102 66 82 78 -21 13 -70 -5 -92 -33 -11 -15 -27 -26 -35 -26 -8 0
-17 -7 -20 -15 -4 -8 -17 -15 -30 -15 -13 0 -32 -7 -41 -15 -69 -59 -107 -88
-168 -128 -38 -26 -85 -62 -103 -81 -42 -43 -69 -51 -84 -23 -9 18 -7 23 10
35 16 11 19 18 12 32 -10 18 15 54 106 150 23 25 49 62 58 83 13 33 19 37 49
37 22 0 37 6 41 15 3 8 12 15 19 15 8 0 22 9 32 20 19 21 35 26 35 11 0 -16
-43 -58 -63 -62 -10 -2 -28 -22 -40 -44 -12 -22 -25 -41 -29 -43 -12 -5 -9
-22 3 -22 14 0 56 32 123 93 31 27 62 47 76 47 13 0 31 6 39 13 9 8 35 19 59
26 24 7 52 21 63 32 10 10 29 19 42 19 13 0 32 7 43 15 22 16 50 19 58 6z
m1973 -73 c7 -5 23 -7 35 -3 54 16 99 22 104 13 4 -5 16 -7 28 -4 11 3 28 1
36 -4 8 -5 21 -5 33 1 11 7 23 7 30 1 7 -5 26 -12 42 -15 50 -9 118 -28 150
-42 17 -7 49 -14 73 -14 24 -1 52 -5 62 -11 10 -5 27 -10 37 -10 10 0 35 -9
56 -20 20 -11 43 -20 51 -20 8 0 44 -20 80 -45 37 -25 70 -45 75 -45 5 0 14
-7 21 -15 7 -8 19 -15 27 -15 8 0 43 -24 76 -54 34 -29 78 -61 97 -70 19 -9
69 -49 111 -88 42 -40 94 -90 115 -110 21 -21 46 -44 54 -53 27 -28 101 -95
115 -102 22 -13 100 -135 119 -188 10 -27 25 -57 32 -66 8 -8 14 -19 14 -23 0
-4 14 -35 30 -68 17 -34 28 -69 25 -79 -4 -11 1 -21 14 -28 12 -7 17 -18 14
-30 -2 -10 3 -33 12 -51 15 -29 15 -34 2 -47 -13 -13 -17 -11 -36 15 -11 17
-21 36 -21 44 0 7 -10 33 -22 58 -12 25 -26 56 -32 69 -14 31 -34 38 -53 18
-15 -15 -14 -20 10 -56 15 -22 27 -46 27 -52 0 -7 14 -34 30 -61 17 -26 30
-56 30 -66 0 -9 7 -26 15 -36 8 -11 15 -31 15 -44 0 -14 8 -30 17 -37 11 -8
16 -25 15 -53 -1 -27 3 -42 13 -46 20 -7 20 -56 0 -56 -8 0 -19 9 -25 20 -6
11 -8 20 -5 20 3 0 -6 22 -20 50 -14 27 -25 58 -25 68 0 10 -13 33 -30 52 -16
19 -29 44 -30 56 0 27 -94 129 -109 120 -6 -4 -11 -20 -11 -36 0 -44 -30 -48
-60 -8 -14 18 -38 44 -54 58 -41 35 -89 81 -294 284 -150 147 -184 176 -196
167 -13 -11 -12 -17 5 -47 10 -19 19 -41 19 -49 0 -7 15 -33 34 -58 18 -24 42
-67 52 -95 11 -28 36 -69 57 -91 22 -23 32 -41 24 -41 -8 0 -22 9 -32 20 -10
11 -25 20 -34 20 -19 0 -71 49 -71 68 0 7 -18 39 -40 69 -23 32 -40 68 -40 83
0 15 -10 36 -24 50 -14 12 -28 37 -32 54 -3 17 -11 37 -16 43 -6 7 -7 20 -4
29 7 18 -29 64 -50 64 -6 0 -17 7 -24 15 -11 13 -15 13 -21 3 -13 -20 -11 -25
17 -52 18 -16 28 -36 30 -60 1 -25 12 -47 32 -67 19 -19 28 -37 25 -49 -3 -10
4 -27 16 -39 24 -24 29 -81 7 -81 -7 0 -19 7 -26 15 -7 8 -17 15 -22 15 -14 0
-58 43 -58 56 0 6 -13 30 -30 52 -16 23 -30 48 -30 56 0 7 -13 30 -30 51 -16
21 -30 48 -30 60 0 44 -50 149 -84 177 -28 23 -39 23 -26 -1 5 -11 10 -34 10
-51 0 -19 6 -33 16 -37 11 -4 14 -13 9 -30 -4 -16 1 -34 15 -53 12 -16 17 -35
14 -45 -4 -9 -3 -20 3 -24 16 -10 53 -77 53 -95 0 -9 17 -35 38 -59 34 -38 59
-71 87 -116 50 -81 174 -211 200 -211 6 0 18 -15 26 -32 8 -19 28 -40 48 -50
18 -9 39 -27 45 -40 29 -56 68 -118 75 -118 11 0 41 -57 41 -78 0 -24 15 -36
35 -28 19 7 3 61 -28 92 -14 13 -27 37 -30 53 -7 32 -44 91 -82 129 -27 27
-33 62 -11 62 23 0 198 -182 193 -202 -3 -9 6 -34 19 -55 13 -21 24 -50 24
-64 0 -15 6 -29 14 -32 9 -4 14 -18 14 -35 -1 -40 10 -56 28 -41 18 14 9 105
-12 130 -8 8 -14 22 -14 30 0 8 -14 42 -32 76 -49 97 -15 104 55 12 15 -20 27
-42 27 -49 0 -7 16 -35 36 -62 24 -34 32 -54 26 -60 -7 -7 -4 -21 9 -42 10
-17 19 -37 19 -45 0 -8 11 -29 25 -47 14 -19 22 -39 19 -48 -3 -9 1 -27 10
-41 9 -13 16 -37 16 -52 0 -16 6 -37 13 -48 7 -11 13 -40 12 -65 -1 -25 2 -52
6 -60 11 -22 23 -73 19 -85 -17 -60 -18 -81 -5 -95 11 -12 12 -19 3 -28 -7 -7
-12 -50 -13 -104 -2 -56 -9 -114 -20 -146 -9 -28 -15 -62 -12 -74 4 -12 2 -27
-2 -32 -5 -6 -11 -24 -14 -41 -16 -93 -29 -156 -44 -205 -10 -30 -16 -60 -15
-67 2 -7 -9 -35 -23 -63 -18 -36 -31 -50 -43 -48 -13 3 -16 12 -14 43 2 22 7
45 11 50 13 17 43 163 37 174 -4 6 -3 18 2 28 17 33 33 91 39 145 3 29 9 58
13 63 28 39 30 377 3 467 -27 87 -41 74 -41 -37 0 -52 4 -97 9 -100 5 -4 5
-13 0 -23 -4 -9 -12 -51 -16 -92 -3 -41 -10 -79 -13 -85 -4 -5 -8 -32 -9 -58
-1 -26 -7 -54 -13 -62 -8 -10 -9 -19 -1 -32 7 -13 6 -22 -3 -33 -10 -12 -29
-68 -52 -148 -2 -7 -8 -10 -14 -7 -13 8 -13 90 -1 114 21 39 24 216 6 350 -16
116 -21 133 -42 146 -21 14 -24 14 -30 -1 -3 -9 -1 -30 5 -46 7 -19 7 -49 1
-95 -5 -36 -6 -71 -1 -77 12 -16 8 -66 -8 -98 -16 -34 -25 -35 -45 -5 -11 17
-15 56 -16 151 -1 70 -6 144 -11 164 -6 21 -12 52 -15 69 -4 24 -29 57 -94
124 -49 50 -89 100 -89 109 0 10 -7 23 -15 30 -8 7 -15 18 -15 25 0 7 -13 29
-30 50 -16 21 -30 48 -30 59 0 12 -7 31 -15 42 -8 10 -15 33 -15 50 0 16 -4
34 -8 40 -5 5 -14 34 -21 65 -7 31 -20 64 -30 73 -17 15 -19 14 -30 -10 -7
-16 -9 -44 -6 -68 5 -32 3 -45 -9 -55 -21 -18 -20 -34 4 -56 15 -13 17 -21 9
-31 -8 -10 -8 -23 1 -48 6 -20 8 -41 4 -47 -4 -7 0 -17 9 -24 9 -6 26 -34 37
-61 12 -27 28 -57 37 -66 11 -13 12 -21 3 -37 -11 -21 -11 -21 -51 11 -29 23
-41 41 -45 69 -4 21 -17 48 -30 60 -17 16 -24 33 -24 60 0 21 -4 41 -10 44 -5
3 -10 22 -10 41 0 65 -41 132 -69 114 -16 -9 -9 -106 8 -123 6 -6 6 -16 -1
-27 -9 -13 -6 -24 12 -48 12 -16 19 -35 16 -41 -4 -5 7 -29 24 -52 16 -23 30
-50 30 -61 0 -25 29 -68 46 -68 8 0 14 -7 14 -15 0 -10 -10 -15 -26 -15 -32 0
-94 63 -94 96 0 12 -8 32 -18 45 -10 13 -24 40 -32 59 -7 19 -20 44 -27 55 -7
11 -13 31 -13 45 0 14 -4 30 -9 35 -6 6 -14 39 -18 75 -8 62 -9 65 -37 68
l-28 4 6 -49 c12 -105 19 -132 38 -153 11 -12 18 -29 15 -40 -3 -11 1 -24 9
-31 7 -6 16 -21 20 -32 15 -50 44 -104 68 -126 14 -14 26 -33 26 -44 0 -11 14
-42 30 -69 17 -27 28 -53 25 -59 -4 -5 5 -23 19 -40 30 -35 33 -66 10 -84 -15
-10 -13 -13 12 -18 27 -6 82 -54 145 -125 26 -29 26 -33 23 -146 -2 -66 -8
-125 -15 -138 -7 -13 -12 -35 -11 -50 1 -15 -2 -30 -8 -33 -7 -4 -7 -12 0 -25
8 -15 6 -21 -8 -29 -17 -9 -26 -64 -24 -147 0 -25 -10 -41 -48 -78 -27 -26
-52 -57 -56 -69 -4 -12 -20 -38 -37 -57 -51 -61 -239 -250 -248 -250 -12 0
-21 -19 -14 -31 5 -7 13 -5 26 6 17 16 18 16 23 -6 18 -87 15 -128 -11 -166
-37 -55 -58 -66 -70 -37 -3 8 0 27 7 42 8 15 14 38 15 52 1 14 6 40 10 58 6
28 5 32 -12 32 -27 0 -67 -45 -59 -66 3 -9 2 -22 -3 -28 -4 -6 -11 -28 -15
-49 -4 -21 -14 -41 -22 -44 -7 -3 -14 -18 -14 -33 0 -15 -9 -39 -20 -53 -11
-14 -18 -32 -15 -39 7 -18 -30 -52 -45 -43 -12 8 -4 94 11 110 5 5 9 21 9 35
0 14 7 35 15 46 17 22 20 110 4 119 -15 10 -59 -34 -59 -59 0 -20 -21 -119
-43 -201 -6 -22 -17 -47 -24 -56 -7 -8 -13 -23 -13 -33 0 -27 -80 -130 -92
-118 -7 7 -5 21 6 43 9 18 16 37 16 44 0 6 5 16 12 23 7 7 13 30 14 51 1 22
12 68 24 103 12 35 24 77 26 93 2 17 6 47 10 68 6 34 4 37 -18 37 -40 0 -88
53 -88 97 0 35 -19 37 -31 4 -6 -17 -15 -31 -20 -31 -5 0 -48 -38 -96 -84 -86
-85 -131 -158 -113 -187 5 -6 -1 -27 -12 -47 -13 -23 -17 -44 -13 -62 5 -21
-1 -40 -19 -69 -14 -22 -26 -47 -26 -55 0 -8 -9 -31 -21 -50 -11 -19 -18 -40
-14 -46 3 -6 -7 -27 -24 -47 -17 -21 -31 -47 -31 -59 0 -11 -11 -31 -24 -44
-14 -12 -28 -37 -31 -54 -8 -37 -71 -106 -97 -106 -25 0 -23 17 7 56 14 18 25
42 25 55 0 12 14 37 30 56 17 18 30 40 30 49 0 23 39 94 51 94 7 0 9 10 5 24
-4 16 1 32 14 49 11 14 20 36 20 50 0 13 7 30 15 37 8 7 15 25 15 40 0 15 7
41 15 56 18 36 19 64 2 64 -21 0 -77 -76 -77 -103 0 -14 -7 -30 -15 -37 -8 -7
-15 -25 -15 -40 0 -15 -6 -33 -14 -39 -7 -6 -16 -25 -20 -42 -3 -17 -17 -44
-31 -61 -14 -16 -25 -36 -25 -44 0 -8 -11 -31 -23 -52 -13 -20 -27 -49 -31
-64 -3 -15 -20 -43 -36 -62 -17 -18 -30 -44 -30 -56 0 -22 -95 -140 -113 -140
-6 0 -19 -8 -29 -17 -14 -12 -21 -14 -30 -5 -8 8 -2 25 25 67 21 30 41 55 46
55 4 0 23 28 41 63 19 34 46 80 62 101 15 21 28 45 28 51 0 7 6 18 14 24 8 6
19 32 25 56 6 25 19 49 30 55 11 5 27 31 37 57 10 27 24 57 31 68 7 11 13 37
13 58 0 24 8 49 20 64 11 14 20 33 20 43 0 19 26 45 55 54 11 3 67 54 125 112
58 58 112 110 122 115 17 9 108 134 108 148 0 5 7 14 15 21 16 13 21 65 7 74
-14 8 -118 -106 -132 -144 -9 -22 -72 -94 -172 -193 -162 -162 -181 -186 -192
-248 -4 -21 -13 -42 -21 -49 -8 -7 -15 -18 -15 -25 0 -6 -9 -20 -20 -30 -12
-11 -18 -26 -15 -35 3 -11 -8 -34 -30 -60 -22 -26 -33 -49 -30 -59 3 -11 -6
-28 -25 -46 -16 -16 -30 -34 -30 -41 0 -6 -20 -39 -45 -73 -25 -34 -45 -68
-45 -77 0 -9 -25 -43 -55 -77 -36 -40 -53 -66 -50 -78 4 -11 -13 -36 -50 -75
-30 -32 -58 -67 -61 -76 -8 -25 19 -33 48 -14 13 8 79 22 148 32 69 9 134 23
145 30 11 8 31 14 46 14 15 0 32 6 38 14 6 7 38 16 72 19 43 5 70 14 94 33 19
14 39 23 45 19 6 -4 21 2 34 14 12 11 39 23 59 25 21 3 49 14 64 26 14 11 36
20 49 20 12 0 25 4 29 9 3 5 22 15 43 22 20 6 44 17 52 24 8 7 30 15 49 19 19
3 49 17 67 31 18 14 43 25 56 25 15 0 39 16 63 40 32 32 45 39 65 35 20 -4 33
3 65 34 22 22 49 40 61 41 39 0 153 98 139 119 -3 6 3 36 14 67 12 30 21 68
21 83 0 26 5 43 35 116 5 11 10 29 11 40 1 11 5 47 9 80 4 34 15 70 26 84 11
13 19 30 19 37 0 8 4 14 9 14 22 0 24 -166 2 -207 -6 -12 -11 -30 -11 -40 0
-11 -6 -25 -12 -31 -7 -7 -14 -23 -15 -35 -4 -43 -21 -109 -31 -119 -7 -7 -7
-16 1 -30 10 -16 9 -21 -5 -29 -12 -6 -18 -22 -18 -44 0 -19 -4 -37 -10 -40
-5 -3 -10 -17 -10 -30 0 -13 -4 -27 -10 -30 -5 -3 -10 -18 -10 -32 0 -25 -13
-61 -51 -138 -10 -22 -19 -47 -19 -55 0 -9 -5 -21 -11 -27 -17 -17 -51 -114
-50 -145 0 -17 -6 -29 -17 -33 -21 -6 -62 -68 -62 -92 0 -9 -11 -33 -25 -53
-14 -20 -28 -47 -30 -60 -5 -27 -33 -60 -50 -60 -7 0 -18 -7 -25 -15 -7 -8
-16 -12 -21 -9 -17 10 -9 36 21 71 18 20 30 45 30 61 0 19 10 36 30 52 16 14
29 32 30 40 0 16 31 81 48 103 5 7 12 28 16 48 3 19 15 53 26 74 11 22 20 51
20 65 0 14 9 30 20 38 12 7 20 23 20 40 0 15 4 32 10 38 13 13 17 73 5 73 -5
1 -10 -8 -10 -18 0 -11 -9 -28 -18 -39 -10 -11 -21 -36 -24 -56 -4 -24 -15
-43 -29 -53 -17 -11 -24 -25 -24 -49 0 -21 -9 -42 -25 -60 -14 -15 -28 -39
-32 -53 -3 -14 -20 -43 -36 -63 -16 -20 -26 -42 -22 -48 4 -7 -6 -25 -22 -43
-32 -35 -73 -98 -73 -114 0 -20 -202 -208 -253 -237 -29 -16 -94 -66 -144
-111 -65 -58 -103 -85 -128 -89 -19 -4 -38 -12 -42 -19 -13 -22 -70 -57 -91
-57 -11 0 -25 7 -32 14 -6 8 -31 25 -56 36 -24 12 -92 68 -151 126 -60 57
-115 104 -123 104 -9 0 -47 32 -85 70 -56 56 -74 69 -90 64 -11 -4 -99 -11
-195 -15 -96 -5 -193 -11 -215 -14 -22 -3 -103 -7 -180 -8 -188 -2 -232 16
-281 114 -15 29 -49 77 -76 105 -26 28 -48 56 -48 62 0 7 -4 12 -9 12 -13 0
-51 64 -51 86 0 18 -49 68 -58 60 -12 -13 12 -78 44 -119 19 -25 34 -51 33
-59 -3 -20 16 -61 40 -82 11 -10 32 -42 46 -70 14 -28 32 -62 40 -76 16 -28 6
-45 -21 -36 -27 9 -94 74 -94 90 0 22 -47 110 -70 131 -11 10 -20 25 -20 33 0
8 -13 37 -30 64 -16 26 -30 52 -30 57 0 5 -7 12 -16 15 -10 4 -14 12 -10 23 7
16 -28 63 -47 63 -13 0 2 -60 24 -96 10 -17 19 -42 19 -56 0 -13 13 -39 30
-58 16 -19 29 -45 30 -58 0 -19 29 -72 50 -92 45 -42 65 -112 36 -123 -7 -3
-30 6 -50 20 -27 20 -36 33 -36 56 0 16 -11 42 -25 59 -14 16 -25 40 -25 52 0
22 -29 68 -57 91 -6 6 -13 26 -15 45 -4 41 -19 45 -32 7 -8 -21 -5 -33 17 -64
15 -22 27 -48 27 -59 0 -11 4 -24 9 -29 5 -6 12 -24 14 -42 3 -17 10 -38 16
-45 57 -69 59 -73 46 -91 -19 -27 -31 -21 -77 41 -51 68 -78 115 -78 136 0 8
-6 19 -14 23 -8 4 -16 24 -18 43 -2 23 -8 35 -18 35 -18 0 -16 -45 4 -85 43
-84 51 -108 52 -144 1 -42 -8 -56 -38 -56 -25 0 -70 74 -63 103 4 15 1 28 -9
36 -9 8 -16 29 -16 48 0 18 -7 50 -15 70 -9 20 -13 44 -10 54 4 11 -2 32 -11
49 -14 23 -16 32 -6 42 7 7 12 27 12 44 0 18 4 35 9 38 11 7 41 98 41 124 0
11 7 25 15 32 8 7 15 18 15 24 0 42 117 186 151 186 9 0 29 -6 45 -14 16 -7
60 -17 98 -20 38 -4 77 -11 88 -17 10 -6 38 -10 61 -11 23 0 47 -4 54 -10 7
-6 14 -5 18 2 3 5 17 10 31 10 34 0 41 26 14 55 -18 19 -27 22 -41 14 -16 -8
-21 -5 -31 16 -12 26 -23 31 -93 39 -102 11 -166 42 -180 87 -3 10 -15 21 -25
24 -27 8 -35 43 -16 64 9 10 16 26 16 36 0 29 -89 115 -119 115 -29 0 -91 55
-91 81 0 32 17 29 61 -10 24 -21 57 -41 74 -45 16 -4 53 -30 82 -57 52 -49 87
-61 110 -38 7 7 17 8 25 3 7 -5 36 -9 63 -10 121 -5 301 -46 350 -80 17 -11
44 -26 62 -33 17 -7 39 -21 49 -32 9 -10 21 -19 27 -19 24 0 86 -38 125 -77
24 -24 52 -43 61 -43 9 0 26 -6 37 -14 11 -8 31 -16 44 -18 15 -2 26 -11 30
-26 7 -34 25 -27 27 11 7 121 4 180 -12 197 -9 10 -15 23 -12 27 3 5 1 56 -4
113 -8 83 -14 109 -30 127 -12 12 -18 27 -14 33 11 17 -25 51 -47 44 -12 -3
-20 1 -25 13 -12 34 -115 123 -143 123 -16 0 -35 11 -52 30 -15 18 -36 30 -50
30 -13 0 -33 7 -44 15 -10 8 -31 15 -46 15 -40 0 -36 -31 8 -69 26 -24 34 -37
29 -52 -4 -11 -1 -27 6 -35 7 -8 15 -32 19 -52 5 -34 8 -37 34 -34 23 3 38 -6
72 -39 24 -24 44 -51 44 -62 0 -10 7 -32 16 -48 18 -37 15 -73 -8 -77 -21 -4
-91 71 -101 109 -12 47 -27 33 -27 -25 0 -46 -4 -56 -24 -70 -24 -15 -26 -15
-46 15 -12 16 -19 36 -16 45 3 8 -1 31 -8 52 -8 20 -17 55 -21 77 -4 22 -12
46 -18 54 -7 8 -12 24 -13 35 0 12 -1 40 -2 63 -2 30 -11 54 -37 87 -33 43
-45 76 -27 76 4 0 14 5 22 10 12 7 11 13 -10 34 -13 15 -32 26 -42 26 -10 0
-21 7 -24 15 -4 8 -17 15 -30 15 -12 0 -27 6 -31 13 -4 6 -21 19 -37 27 -36
19 -147 20 -153 3 -3 -7 2 -13 10 -13 7 0 19 -11 25 -24 9 -21 8 -25 -11 -30
-39 -10 -92 -6 -113 9 -12 8 -46 16 -77 18 -53 4 -61 8 -107 55 -27 28 -50 56
-50 62 0 7 -7 27 -15 44 -15 31 -14 37 5 89 12 31 26 59 31 62 5 4 9 17 9 30
0 13 11 32 24 43 14 10 38 49 55 85 18 39 43 75 61 89 17 12 42 46 56 75 14
29 36 63 49 76 13 12 27 36 31 52 3 17 24 53 45 82 22 29 39 61 39 71 0 11 7
25 15 32 18 15 20 61 4 77 -6 6 -14 26 -18 45 -5 23 -13 33 -26 34 -39 2 -44
5 -63 37 -27 43 -22 131 13 222 14 37 25 75 25 85 0 9 12 29 26 43 15 15 27
39 28 55 1 15 11 38 22 50 12 13 25 42 29 65 4 23 9 51 12 62 2 11 3 32 3 47
0 15 4 29 10 33 5 3 10 43 10 88 1 54 5 88 15 100 7 11 17 36 20 58 4 21 11
41 16 45 5 3 9 16 9 30 0 14 7 27 15 30 8 4 15 15 15 26 0 11 12 34 26 53 14
18 30 49 35 69 7 26 49 75 157 184 176 176 265 252 296 252 12 0 33 11 46 25
14 15 35 25 51 25 15 0 30 4 34 9 8 14 65 41 85 41 10 0 29 9 43 20 14 11 38
20 54 20 17 0 33 3 37 7 10 11 104 31 221 49 55 8 109 19 120 24 11 5 59 12
106 15 48 4 104 11 125 16 42 10 129 19 181 19 18 0 34 3 36 8 7 11 139 3 154
-10z m-3943 -79 c3 4 96 8 207 9 l201 1 26 -31 c29 -35 140 -118 157 -118 6 0
29 -18 50 -40 21 -22 47 -40 56 -40 10 0 30 -7 46 -15 15 -8 40 -17 56 -20 16
-3 27 -12 27 -21 0 -27 -115 -10 -149 22 -14 13 -33 24 -42 24 -10 0 -37 16
-61 36 -23 20 -56 43 -73 51 -41 18 -68 35 -81 52 -7 10 -13 11 -18 3 -7 -12
140 -172 159 -172 7 0 20 -9 31 -21 12 -14 25 -18 41 -14 18 4 25 0 33 -20 5
-14 17 -25 25 -25 21 0 75 -40 75 -56 0 -21 -27 -23 -59 -3 -18 11 -37 17 -42
13 -6 -3 -18 1 -27 9 -9 8 -30 18 -47 21 -16 4 -38 14 -47 23 -9 8 -22 12 -28
8 -6 -4 -32 7 -56 25 -25 18 -47 30 -50 28 -5 -6 59 -78 70 -78 5 0 25 -17 44
-37 19 -21 58 -50 86 -64 62 -32 73 -66 33 -108 -195 -203 -184 -194 -214
-186 -15 3 -48 28 -73 55 -59 62 -118 83 -90 31 6 -12 17 -21 25 -21 7 0 23
-17 36 -37 12 -21 34 -50 48 -66 17 -18 22 -30 15 -37 -14 -14 -42 -2 -49 20
-9 28 -114 120 -136 120 -11 0 -35 11 -53 25 -30 23 -76 34 -76 19 0 -18 46
-65 82 -84 47 -25 107 -86 108 -111 0 -9 9 -24 20 -34 26 -24 25 -37 -4 -64
l-24 -22 -21 29 c-11 17 -21 35 -21 41 0 5 -6 14 -13 18 -7 4 -50 50 -97 101
-59 65 -87 89 -94 81 -8 -7 -6 -14 7 -23 9 -7 17 -18 17 -24 0 -5 6 -12 14
-15 7 -3 16 -18 19 -34 3 -15 19 -48 36 -73 33 -48 40 -87 18 -96 -14 -5 -167
144 -178 174 -4 9 -21 30 -37 46 -27 25 -34 27 -64 18 -18 -5 -49 -9 -68 -8
-28 1 -35 5 -35 21 0 14 8 21 28 23 28 3 31 9 21 36 -8 20 -71 22 -99 2 -11
-7 -37 -19 -57 -25 -54 -18 -63 -33 -33 -59 14 -13 25 -33 25 -47 0 -17 21
-48 65 -95 35 -39 70 -82 77 -95 7 -13 24 -44 37 -68 13 -25 77 -98 142 -163
66 -65 119 -122 119 -128 0 -6 12 -33 25 -61 14 -27 25 -60 25 -73 0 -12 8
-29 18 -37 14 -13 17 -29 15 -83 -1 -37 -2 -69 -2 -71 -1 -3 -12 6 -26 19 -16
15 -25 35 -25 54 0 21 -12 43 -35 69 -20 20 -39 37 -44 37 -5 0 -12 7 -15 16
-3 8 -11 12 -17 8 -9 -5 -7 -11 5 -20 10 -7 16 -21 15 -31 -3 -20 38 -93 52
-93 5 0 9 -17 9 -39 0 -30 5 -42 25 -55 18 -12 25 -25 25 -49 0 -17 3 -58 6
-89 5 -49 3 -58 -10 -58 -9 0 -16 7 -16 16 0 9 -9 33 -19 53 -10 20 -27 54
-37 76 -9 22 -28 54 -41 71 -12 17 -23 38 -23 46 0 15 -60 58 -81 58 -15 0
-10 -26 11 -53 11 -14 20 -30 20 -36 0 -5 18 -36 40 -67 22 -32 40 -69 40 -84
0 -14 5 -31 11 -37 7 -7 9 -19 6 -27 -12 -29 -35 -16 -59 32 -29 60 -53 83
-108 105 -51 20 -61 15 -33 -16 12 -12 35 -49 52 -82 16 -33 39 -68 50 -77 22
-19 27 -44 13 -66 -6 -9 -29 8 -83 61 -90 89 -126 114 -141 99 -11 -11 23 -62
84 -126 15 -16 30 -43 34 -60 8 -37 24 -68 42 -79 14 -9 16 -43 4 -51 -12 -7
-82 63 -82 83 0 23 -36 56 -81 75 -20 8 -39 22 -42 29 -8 20 -44 27 -57 12 -8
-10 -3 -22 21 -49 17 -20 39 -36 48 -36 21 0 39 -20 70 -80 13 -25 34 -56 47
-71 31 -33 31 -59 0 -59 -15 0 -30 10 -42 28 -9 15 -55 64 -101 110 -72 71
-87 81 -103 72 -29 -15 -25 -27 24 -71 25 -23 57 -59 72 -82 16 -23 40 -53 54
-67 14 -14 31 -33 38 -42 19 -23 52 -118 52 -147 0 -13 7 -32 15 -41 13 -15
13 -20 0 -48 -11 -22 -15 -53 -13 -109 l3 -78 42 -6 c24 -3 46 -8 49 -12 4 -3
14 -2 23 3 22 11 44 -3 39 -26 -3 -15 -15 -20 -68 -26 -77 -7 -120 -17 -137
-30 -27 -21 0 -29 75 -22 130 11 136 11 140 -9 5 -23 -25 -46 -50 -39 -10 2
-24 0 -31 -6 -7 -6 -18 -7 -27 -2 -15 9 -55 -13 -64 -36 -5 -13 4 -15 57 -12
50 2 62 0 62 -12 0 -10 -8 -14 -28 -12 -17 2 -29 -3 -33 -13 -4 -9 -19 -15
-38 -15 -18 0 -36 -4 -42 -10 -5 -5 -36 -12 -69 -16 -33 -4 -67 -12 -75 -18
-32 -24 -61 -36 -71 -30 -12 7 -51 -25 -44 -36 5 -9 53 1 98 19 16 6 33 8 38
5 6 -3 21 2 35 11 17 11 35 14 55 10 16 -4 29 -8 29 -10 0 -18 -16 -35 -34
-35 -11 0 -32 -9 -46 -20 -16 -13 -41 -20 -69 -20 -26 0 -52 -7 -62 -16 -9 -8
-28 -16 -42 -18 -14 -1 -32 -8 -39 -14 -7 -6 -30 -12 -51 -14 -21 -2 -37 -7
-37 -13 0 -14 69 -19 85 -5 11 9 67 17 175 24 54 4 58 -4 53 -107 l-4 -92 -45
-45 c-24 -25 -44 -53 -44 -62 0 -24 -99 -37 -112 -14 -6 11 -14 14 -24 8 -21
-12 -138 48 -174 88 -27 30 -30 31 -30 12 0 -11 5 -24 10 -27 15 -9 13 -88 -2
-83 -7 3 -14 12 -16 22 -2 9 -19 33 -39 54 -19 20 -39 48 -44 62 -10 25 -99
97 -168 135 -20 11 -47 28 -61 38 -13 9 -33 17 -43 17 -10 0 -31 9 -46 19 -15
11 -39 23 -54 26 -14 4 -31 13 -38 21 -15 18 -48 18 -55 1 -9 -24 13 -61 68
-117 39 -40 58 -68 67 -102 21 -74 -7 -92 -54 -37 -33 40 -55 27 -32 -18 23
-45 26 -97 5 -101 -14 -3 -18 3 -18 25 0 15 -7 37 -15 47 -8 11 -15 30 -15 42
0 13 -5 26 -10 29 -6 4 -10 18 -10 33 1 35 -22 122 -32 122 -5 0 -8 41 -8 90
0 55 -4 90 -10 90 -16 0 -30 -46 -30 -95 0 -24 -4 -47 -10 -50 -5 -3 -10 -20
-10 -36 0 -27 -3 -30 -27 -27 -26 3 -28 7 -31 50 -3 46 2 64 50 167 19 41 22
43 54 38 29 -5 37 -2 55 24 20 28 20 31 4 49 -23 25 -17 66 10 62 23 -4 65
-42 65 -59 0 -6 10 -19 23 -27 12 -9 34 -37 48 -63 14 -27 36 -53 49 -60 13
-6 63 -48 111 -93 91 -84 153 -124 177 -115 9 3 3 15 -20 38 -160 157 -358
390 -358 420 0 4 -13 25 -29 47 -19 26 -27 48 -24 61 3 12 0 25 -7 29 -8 5
-15 33 -17 71 -3 62 -23 109 -45 109 -6 0 -20 7 -30 16 -16 16 -18 15 -23 -2
-4 -11 -16 -38 -27 -60 l-21 -41 21 -35 c12 -20 22 -44 22 -54 0 -11 7 -27 15
-38 12 -16 12 -23 1 -45 -23 -43 -58 -68 -96 -69 -19 0 -40 4 -47 9 -7 6 -17
8 -23 4 -20 -12 -237 -18 -244 -6 -4 6 -17 11 -30 11 -25 0 -43 17 -71 67 -18
31 -18 33 1 90 10 32 28 72 40 90 11 17 31 60 44 95 13 34 36 78 51 95 16 18
31 50 35 70 3 21 17 49 29 63 13 14 31 43 40 65 27 67 61 95 115 95 26 0 56
-7 69 -17 22 -15 25 -15 36 0 18 25 37 21 33 -7 -5 -40 56 -96 103 -96 21 0
41 -4 44 -10 10 -16 33 -12 53 8 30 30 86 34 117 10 17 -13 25 -28 23 -42 -3
-20 -9 -21 -88 -21 -47 0 -90 4 -97 8 -33 23 -46 -44 -16 -89 9 -14 17 -42 17
-62 1 -31 5 -38 24 -40 13 -2 26 -10 29 -18 3 -8 18 -14 33 -14 16 0 32 -5 35
-10 4 -7 12 -7 25 0 10 5 36 10 58 10 47 0 131 35 140 58 3 9 23 39 45 66 39
51 87 80 212 133 68 28 91 46 80 63 -5 8 -11 7 -23 -3 -10 -8 -50 -18 -92 -22
-41 -4 -79 -11 -85 -15 -16 -12 -124 -20 -130 -9 -4 5 -16 9 -27 9 -28 0 -127
48 -156 76 -13 13 -36 26 -52 29 -16 3 -34 12 -40 20 -6 7 -22 16 -36 19 -46
12 -74 36 -74 65 0 33 17 51 46 51 12 0 36 8 52 17 29 17 31 17 50 0 23 -21
46 -22 62 -2 15 18 30 10 30 -16 0 -14 9 -21 30 -26 32 -6 90 -63 90 -88 0
-21 36 -38 58 -26 11 6 24 6 32 1 16 -10 40 5 40 26 0 7 -12 21 -26 31 -15 9
-33 32 -40 50 -9 21 -21 33 -34 33 -11 0 -24 12 -32 28 -9 19 -22 28 -43 30
-17 2 -38 10 -47 19 -9 8 -21 12 -27 9 -6 -4 -25 1 -43 10 -19 10 -65 19 -108
21 -41 3 -79 8 -85 13 -14 11 -93 11 -100 -1 -4 -5 -19 -9 -35 -9 -22 0 -48
-20 -122 -90 -51 -49 -101 -90 -111 -90 -33 0 -101 87 -111 143 -10 55 3 126
28 150 11 12 30 39 41 62 11 22 33 58 47 80 15 22 29 53 32 69 3 16 10 32 16
36 6 3 11 29 12 56 1 30 9 58 20 73 11 14 18 34 16 46 -1 12 8 34 20 50 13 16
20 35 17 43 -3 7 4 26 15 42 11 15 20 36 20 45 0 9 23 40 50 69 28 29 50 60
50 69 0 9 5 19 10 22 6 3 10 13 10 21 0 27 148 152 198 168 24 8 37 35 19 40
-6 2 -35 11 -63 19 -27 8 -62 13 -76 10 -23 -4 -29 1 -47 36 -25 48 -26 64 -6
81 8 7 15 24 15 39 0 35 69 105 93 95 19 -7 22 -25 8 -40 -5 -5 -7 -24 -4 -42
l5 -33 24 22 c14 13 24 34 24 49 0 15 9 35 19 44 11 10 27 33 36 52 9 19 21
34 28 34 7 0 32 16 56 36 44 34 80 41 88 17 3 -7 -34 -52 -81 -100 -47 -48
-86 -91 -86 -95 0 -12 28 -10 35 2 4 6 24 18 45 26 22 9 42 24 45 35 4 10 11
19 17 19 17 0 56 47 84 100 27 52 105 127 141 136 13 4 31 3 40 -1 16 -6 16
-8 -4 -23 -12 -9 -31 -37 -41 -62 -27 -63 -149 -177 -193 -182 -18 -2 -34 -9
-37 -15 -7 -23 70 -14 113 12 22 13 54 31 70 40 27 14 44 35 82 105 35 63 179
190 216 190 11 0 28 7 37 15 18 16 113 26 126 12 13 -12 -38 -57 -65 -57 -24
0 -77 -38 -175 -124 -16 -15 -34 -26 -41 -26 -17 0 -42 -31 -50 -62 -11 -42
14 -36 67 17 25 25 50 45 55 45 6 0 18 9 27 19 10 11 32 25 49 32 18 7 40 21
50 30 17 18 68 36 117 41 16 2 25 -3 28 -14 3 -14 -3 -18 -23 -18 -28 0 -125
-75 -125 -98 0 -7 -10 -17 -22 -21 -13 -5 -45 -28 -72 -50 -26 -23 -53 -41
-59 -41 -17 0 -47 -32 -47 -51 0 -16 6 -17 53 -12 28 3 56 12 60 19 4 8 22 14
39 14 32 0 98 34 98 51 0 5 -11 14 -25 19 -14 5 -25 16 -25 25 0 24 62 75 92
75 6 0 21 8 32 19 21 19 159 54 208 52 15 0 30 4 34 10 4 7 10 7 18 0 7 -6 30
-9 52 -8 35 2 39 5 42 30 3 27 2 27 -51 27 -36 0 -59 5 -67 15 -7 8 -18 15
-26 15 -7 0 -20 7 -29 17 -16 15 -15 17 12 28 17 8 35 9 45 4 9 -5 19 -5 22 0z
m1374 -7 c2 -7 -20 -36 -48 -65 -59 -58 -120 -140 -120 -160 0 -19 -76 -90
-89 -83 -20 13 -12 33 51 128 98 146 190 227 206 180z m3664 -9 c22 -21 39
-28 80 -29 42 -2 56 -8 85 -36 52 -49 103 -123 103 -147 0 -25 -31 -29 -50 -6
-7 8 -20 15 -30 15 -10 0 -49 29 -86 65 -41 38 -78 65 -91 65 -12 0 -31 12
-42 28 -12 15 -26 33 -31 40 -6 7 -8 17 -5 22 11 18 38 11 67 -17z m-3832 -46
c0 -7 -32 -44 -71 -82 -39 -39 -79 -87 -90 -107 -11 -21 -26 -38 -34 -38 -19
0 -19 19 -2 34 7 6 22 31 32 56 24 58 111 150 142 150 13 0 23 -6 23 -13z
m-470 -68 c7 -11 9 -23 6 -27 -3 -3 -6 -1 -6 5 0 6 -15 13 -32 17 -26 5 -30 9
-18 16 23 15 38 12 50 -11z m1314 -305 c15 -9 23 -20 19 -25 -4 -4 -91 -10
-193 -13 -102 -3 -192 -5 -200 -6 -13 -1 -49 -7 -148 -26 -17 -4 -22 -10 -20
-27 3 -19 9 -22 43 -21 22 1 59 7 82 13 62 16 329 19 345 3 10 -10 9 -15 -4
-28 -11 -12 -40 -17 -99 -20 -120 -5 -143 -9 -170 -28 -24 -17 -24 -17 -4 -30
43 -29 153 -132 160 -149 9 -23 -2 -34 -17 -19 -7 7 -21 12 -31 12 -11 0 -36
14 -57 30 -34 27 -78 39 -92 24 -10 -9 36 -52 63 -59 14 -3 50 -26 80 -51 30
-24 57 -44 61 -44 12 0 9 -38 -3 -46 -14 -8 -76 24 -105 54 -17 17 -29 21 -48
16 -16 -4 -26 -2 -26 5 0 6 -5 11 -11 11 -7 0 -18 8 -25 18 -7 9 -14 12 -14 6
0 -27 121 -131 140 -119 14 9 93 -72 87 -89 -9 -23 -33 -20 -71 9 -18 14 -46
25 -63 25 -17 0 -36 7 -43 15 -16 19 -30 19 -30 0 0 -8 15 -24 33 -35 17 -11
47 -33 64 -50 18 -16 39 -30 47 -30 20 0 56 -39 56 -62 0 -10 -6 -18 -12 -18
-27 0 -89 27 -112 49 -22 21 -96 39 -96 24 0 -4 41 -47 91 -95 50 -48 88 -92
84 -98 -12 -19 -51 -10 -91 20 -43 33 -72 38 -81 15 -8 -22 21 -50 65 -64 37
-11 102 -62 102 -81 0 -18 -39 -31 -59 -20 -11 5 -26 10 -35 10 -8 0 -30 14
-48 30 -40 37 -48 37 -48 5 0 -15 6 -25 15 -25 8 0 40 -26 71 -57 51 -52 54
-58 38 -70 -26 -19 -37 -16 -69 17 -26 27 -88 50 -102 37 -3 -3 36 -47 86 -96
50 -50 91 -96 91 -101 0 -25 -68 2 -114 45 -28 26 -97 65 -116 65 -20 0 -10
-20 29 -58 107 -102 130 -122 144 -122 20 0 59 -49 55 -69 -6 -32 -35 -20 -98
39 -36 33 -72 60 -80 60 -9 0 -23 9 -33 20 -9 11 -26 20 -37 20 -32 0 -24 -33
14 -55 95 -56 209 -186 190 -216 -11 -18 -28 -8 -83 49 -31 31 -68 64 -81 73
-28 18 -90 34 -90 24 0 -12 170 -175 182 -175 7 0 29 -14 48 -29 34 -29 34
-30 16 -50 -18 -20 -18 -20 -60 24 -23 25 -49 45 -57 45 -9 0 -22 7 -29 15 -7
8 -18 15 -25 15 -7 0 -15 7 -19 15 -3 8 -12 15 -20 15 -28 0 -4 -33 96 -134
54 -54 98 -104 98 -111 0 -7 -7 -18 -15 -25 -9 -7 -13 -21 -9 -34 3 -14 -1
-28 -10 -35 -9 -8 -16 -26 -16 -40 0 -17 -11 -38 -29 -55 -16 -16 -39 -50 -50
-76 -11 -26 -28 -53 -37 -61 -9 -7 -35 -52 -57 -99 -38 -79 -41 -90 -39 -164
1 -54 6 -84 16 -95 9 -10 13 -26 9 -39 -3 -12 1 -32 9 -44 13 -20 13 -26 -2
-53 -9 -16 -28 -37 -43 -45 -26 -14 -28 -13 -75 33 -48 48 -65 56 -77 36 -8
-12 30 -71 75 -116 18 -18 30 -40 28 -50 -6 -32 -37 -26 -82 15 -43 40 -82 59
-94 47 -3 -3 -1 -14 6 -23 6 -9 28 -49 48 -89 20 -39 42 -74 50 -77 8 -3 14
-12 14 -20 0 -9 9 -20 20 -26 25 -13 27 -50 2 -50 -10 0 -25 15 -36 38 -10 20
-22 45 -27 54 -5 10 -9 24 -9 33 0 8 -10 20 -22 26 -12 7 -54 42 -93 78 -38
36 -88 82 -111 101 -23 19 -46 45 -53 58 -6 12 -19 22 -28 22 -9 0 -26 10 -38
23 -12 12 -36 34 -54 50 -38 31 -36 57 4 57 22 0 25 4 25 34 0 26 -10 46 -39
79 -21 25 -41 57 -45 72 -4 15 -24 43 -44 62 -62 59 -82 63 -82 17 0 -13 -5
-26 -11 -30 -6 -3 -8 -16 -5 -28 4 -17 -5 -33 -40 -67 -53 -52 -91 -58 -140
-23 -20 15 -35 19 -45 14 -9 -6 -22 -1 -41 17 -24 23 -35 26 -81 24 -146 -8
-153 -6 -192 30 -20 19 -41 43 -46 54 -5 11 -14 28 -21 37 -10 14 -9 20 5 36
9 10 17 28 17 39 0 11 11 33 25 49 13 15 27 40 30 54 3 15 37 57 75 95 39 38
70 74 70 80 0 21 39 82 77 122 37 38 39 44 38 99 -1 33 -5 68 -10 79 -10 26
-54 65 -72 65 -8 0 -19 14 -24 30 -6 17 -15 30 -19 30 -4 0 -11 12 -15 28 -4
15 -6 27 -5 27 1 0 -3 12 -9 26 -8 24 -5 31 35 70 39 38 44 48 44 89 0 25 7
63 15 85 8 22 14 54 15 71 0 17 6 37 14 43 8 7 17 24 20 39 7 27 14 46 54 132
11 25 23 65 26 89 7 48 32 102 52 114 8 4 14 17 14 27 0 10 11 40 25 66 14 26
25 52 25 59 0 6 45 55 99 108 72 71 109 99 133 104 18 3 38 10 44 14 6 5 35
10 65 13 30 2 67 9 82 15 18 7 35 8 46 2 12 -7 30 -5 56 3 36 13 37 14 17 25
-11 6 -52 11 -91 11 -38 0 -73 5 -76 11 -12 19 26 49 62 49 18 0 43 6 54 13
17 10 23 10 26 0 3 -7 14 -13 24 -13 11 0 29 -5 40 -11 14 -7 24 -7 33 0 8 7
21 6 40 -4 16 -8 39 -15 52 -15 12 0 25 -4 28 -9 4 -5 18 -6 34 -1 104 33 166
49 173 45 4 -3 27 0 51 6 112 30 443 26 492 -7z m-3683 -842 c-5 -10 -9 -38
-9 -62 0 -104 -1 -107 -45 -152 -35 -37 -41 -48 -33 -62 9 -14 6 -21 -16 -37
-23 -17 -28 -28 -28 -62 0 -23 -6 -54 -14 -68 -8 -15 -10 -32 -6 -40 5 -7 4
-21 -1 -31 -7 -14 -6 -20 6 -24 10 -4 15 -19 15 -43 0 -20 4 -41 9 -47 5 -5
12 -35 16 -66 8 -72 -1 -74 -66 -13 -26 25 -52 45 -57 45 -17 0 -64 83 -69
121 -6 44 18 83 93 154 27 25 49 59 60 90 10 28 24 59 31 70 7 11 13 48 13 87
0 61 3 70 30 98 17 17 30 39 30 49 0 25 10 32 31 20 15 -7 17 -14 10 -27z
m7209 -357 c0 -7 8 -23 19 -36 10 -13 21 -37 24 -54 3 -16 10 -48 16 -70 6
-22 13 -65 16 -95 3 -30 10 -65 17 -78 9 -17 9 -25 0 -34 -7 -7 -8 -16 -2 -23
5 -6 9 -50 9 -96 -1 -119 -6 -263 -8 -269 -2 -3 -4 -27 -7 -54 -2 -27 -8 -54
-14 -60 -5 -5 -10 -22 -10 -38 0 -15 -5 -38 -12 -52 -12 -28 -52 -59 -62 -49
-12 12 -6 98 9 127 8 15 15 47 15 70 0 22 7 59 15 81 8 22 14 75 15 118 0 43
5 86 12 97 10 15 10 22 0 32 -7 7 -12 42 -12 93 0 45 -3 85 -7 89 -5 4 -9 20
-10 34 -6 80 -32 175 -61 219 -10 16 -12 35 -7 59 6 35 7 35 26 18 10 -9 19
-23 19 -29z m-6483 -632 c4 -11 -4 -26 -25 -45 -26 -22 -42 -28 -80 -28 -26 0
-53 -5 -59 -11 -13 -13 -65 -8 -70 7 -6 19 27 44 58 44 17 0 37 7 45 15 9 8
28 15 44 15 16 0 32 5 35 10 10 16 45 12 52 -7z m1097 -618 c11 -8 28 -15 38
-15 15 0 18 -10 19 -67 1 -38 1 -87 -1 -111 -1 -27 4 -50 13 -60 8 -9 17 -26
18 -36 2 -11 9 -19 14 -18 14 2 19 41 6 55 -19 24 -11 100 16 135 13 17 29 32
36 32 16 0 38 -36 31 -53 -2 -7 4 -21 15 -31 19 -17 20 -16 26 38 6 45 11 56
26 56 20 0 39 -28 39 -58 0 -11 7 -25 15 -32 9 -7 15 -30 16 -54 0 -22 4 -50
8 -61 7 -16 9 -14 14 14 4 19 7 58 7 87 0 30 4 54 8 54 17 0 52 -60 52 -88 0
-16 7 -35 15 -42 8 -7 15 -27 15 -45 0 -17 3 -35 8 -39 4 -4 12 -26 17 -49 6
-23 15 -40 20 -37 20 10 -3 187 -31 233 -11 19 -7 77 5 77 10 0 71 -82 71 -96
0 -6 7 -15 16 -18 10 -4 14 -12 10 -22 -3 -9 3 -27 14 -41 11 -14 20 -36 20
-49 0 -13 7 -49 15 -81 8 -31 15 -81 15 -110 0 -40 4 -53 15 -53 11 0 15 11
15 38 0 20 4 43 9 50 4 7 4 36 -1 65 -4 29 -9 72 -9 97 -1 25 -7 55 -15 67
-17 28 -18 63 -1 63 16 -1 58 -67 51 -83 -2 -7 9 -26 26 -42 21 -20 30 -38 30
-61 0 -18 4 -35 10 -39 5 -3 9 -18 9 -33 0 -15 2 -45 4 -67 2 -22 0 -48 -5
-58 -6 -12 -5 -23 1 -31 8 -10 7 -17 -4 -26 -8 -7 -15 -29 -15 -50 0 -20 -3
-40 -7 -44 -9 -9 -14 -74 -14 -201 -1 -137 0 -153 11 -160 6 -4 10 -15 10 -27
0 -11 9 -31 20 -45 11 -14 20 -32 20 -39 0 -7 31 -39 70 -70 38 -32 71 -63 74
-70 3 -7 22 -16 43 -20 21 -4 58 -18 82 -31 30 -16 61 -23 97 -23 29 0 55 -4
58 -9 12 -19 -23 -30 -123 -40 -89 -10 -107 -9 -121 4 -9 8 -27 15 -39 15 -13
0 -36 11 -53 25 -16 14 -41 28 -56 32 -15 3 -43 24 -62 45 -41 43 -60 48 -59
16 0 -13 -3 -49 -6 -81 -3 -32 -2 -64 2 -70 18 -28 29 -315 14 -330 -6 -6 -11
-19 -11 -28 0 -10 -9 -21 -20 -24 -11 -3 -20 -14 -20 -24 0 -10 -9 -26 -20
-36 -11 -10 -20 -26 -20 -35 0 -9 -15 -31 -34 -49 -31 -30 -34 -38 -40 -118
-6 -66 -4 -90 7 -107 8 -11 18 -36 21 -54 4 -17 25 -51 47 -74 66 -71 47 -87
-49 -41 -34 17 -62 39 -71 57 -9 16 -33 51 -53 79 -29 39 -36 56 -31 78 3 16
0 65 -7 110 -8 58 -8 85 -1 92 16 16 14 80 -1 75 -7 -3 -15 -18 -16 -34 -2
-16 -10 -36 -18 -45 -10 -11 -14 -49 -15 -137 l-2 -123 29 -32 c64 -70 77
-127 30 -127 -24 0 -56 32 -56 57 0 9 -11 31 -25 49 -15 19 -30 58 -36 91 -6
32 -15 64 -21 70 -6 7 -7 20 -4 29 3 9 1 35 -5 57 -9 36 -12 39 -21 23 -17
-30 -4 -217 16 -228 11 -6 14 -17 10 -38 -5 -21 0 -37 20 -63 30 -39 32 -50
11 -67 -19 -16 -43 2 -62 47 -7 18 -18 33 -23 33 -6 0 -10 14 -10 30 0 17 -9
39 -22 52 -12 12 -23 33 -24 47 -2 14 -6 56 -10 94 -4 47 -10 67 -20 67 -10 0
-14 -13 -15 -42 0 -24 -2 -65 -5 -93 -2 -36 2 -58 15 -81 14 -23 16 -35 8 -43
-8 -8 -5 -19 12 -42 13 -17 21 -39 18 -48 -2 -10 0 -26 5 -35 7 -12 4 -18 -14
-25 -30 -11 -33 -8 -58 42 -34 70 -52 100 -72 121 -15 17 -18 17 -18 3 0 -8 5
-19 11 -23 7 -4 9 -20 6 -39 -4 -22 1 -45 14 -69 10 -20 19 -42 19 -50 0 -8
-20 -35 -43 -60 -42 -44 -47 -46 -98 -46 -49 0 -59 4 -104 43 -28 23 -63 49
-79 57 -16 8 -51 36 -78 62 -46 46 -68 58 -68 39 0 -5 12 -20 28 -33 15 -12
34 -39 42 -58 17 -43 81 -140 92 -140 4 0 8 -7 8 -15 0 -10 -10 -15 -34 -15
-27 0 -39 7 -62 38 -16 20 -47 57 -71 83 -23 25 -56 74 -74 109 -17 35 -38 70
-45 78 -8 7 -14 24 -14 36 0 13 -7 29 -15 36 -8 7 -15 29 -15 50 0 21 -7 43
-15 50 -8 7 -15 28 -15 47 0 19 -6 36 -14 39 -8 3 -16 19 -20 35 -3 17 -10 28
-16 24 -12 -8 -13 -42 -1 -49 9 -6 21 -74 24 -141 2 -49 -22 -56 -35 -10 -7
29 -14 45 -56 135 -27 58 -38 217 -22 310 7 36 14 95 17 133 4 56 2 67 -11 67
-12 0 -16 -10 -16 -34 0 -19 -5 -38 -11 -42 -7 -4 -9 -24 -7 -49 3 -23 1 -50
-4 -59 -8 -14 -13 -57 -17 -151 -2 -40 18 -195 28 -212 15 -29 14 -63 -2 -63
-15 0 -107 85 -107 99 0 5 -12 19 -26 30 -18 14 -25 27 -21 41 3 11 1 22 -4
25 -13 9 1 224 17 268 8 20 14 47 14 58 0 12 9 32 20 46 11 14 20 38 20 52 0
15 9 36 19 48 11 11 31 42 44 69 34 67 177 198 228 209 15 4 43 19 61 36 18
16 40 29 49 29 9 0 44 18 77 40 33 22 64 40 70 40 19 0 122 110 122 131 0 11
6 22 14 25 10 4 13 21 11 62 -1 31 -6 56 -11 55 -5 -2 -9 -11 -9 -20 0 -10 -7
-23 -15 -30 -8 -6 -15 -25 -16 -43 -1 -17 -12 -43 -25 -57 -40 -43 -131 -109
-180 -130 -26 -12 -50 -26 -53 -32 -4 -6 -19 -11 -33 -11 -13 0 -36 -9 -50
-20 -30 -23 -43 -25 -43 -7 0 47 76 124 116 119 11 -2 26 4 34 12 7 9 29 20
50 26 43 12 74 38 113 97 31 49 33 69 12 120 -10 22 -13 49 -9 70 8 41 -9 44
-42 8 -13 -14 -34 -25 -47 -25 -13 0 -36 -9 -50 -20 -14 -11 -39 -20 -55 -20
-26 0 -31 4 -34 27 -2 20 -10 29 -31 34 -61 16 -78 61 -29 80 15 6 34 15 42
20 8 5 31 18 51 29 59 31 82 90 80 206 -1 71 2 100 14 116 8 13 15 32 15 43 0
11 14 35 30 53 17 18 30 39 30 47 0 7 24 30 53 52 28 21 67 52 86 70 30 29 40
33 90 33 33 -1 64 -7 75 -15z m-1626 -48 c2 -9 -11 -29 -28 -44 -25 -23 -33
-42 -44 -102 -17 -89 -30 -105 -57 -72 -10 13 -19 34 -19 46 0 35 44 115 86
158 38 39 57 43 62 14z m-120 -11 c2 -9 -13 -35 -33 -57 -20 -23 -43 -57 -51
-76 -19 -45 -34 -33 -34 26 0 45 4 52 45 90 47 43 67 48 73 17z m-158 -20 c0
-16 -33 -76 -54 -99 -32 -35 -59 -112 -47 -135 7 -12 3 -25 -14 -46 -21 -27
-26 -29 -50 -18 -19 9 -24 17 -21 34 3 13 8 58 11 100 6 73 9 79 49 122 37 40
47 46 84 46 23 0 42 -2 42 -4z m3847 -86 c37 -34 63 -80 63 -113 0 -12 4 -27
9 -32 5 -6 17 -66 26 -134 15 -116 15 -124 -1 -142 -23 -26 -54 -24 -98 6 -20
14 -45 25 -54 25 -9 1 -28 7 -42 15 -14 8 -34 14 -46 15 -38 0 -67 44 -73 113
-1 4 -8 7 -16 7 -15 0 -19 -15 -16 -61 3 -35 -23 -55 -52 -41 -12 6 -39 13
-60 17 -21 3 -53 14 -71 24 -18 10 -46 22 -64 25 -21 5 -37 19 -51 42 l-21 35
37 46 c63 75 133 142 168 160 14 7 59 6 145 -3 119 -12 126 -11 145 7 26 25
34 24 72 -11z m-1089 -203 c14 -15 25 -46 32 -92 18 -109 15 -141 -26 -310
-19 -81 -23 -139 -9 -143 5 -2 14 12 18 30 5 18 13 38 18 45 20 23 44 119 59
237 11 82 16 99 30 91 5 -3 10 -32 10 -64 0 -32 5 -62 12 -69 10 -10 10 -17 1
-31 -7 -10 -13 -60 -15 -110 -2 -61 -7 -92 -15 -96 -15 -5 -18 -101 -4 -109
12 -8 21 19 21 65 0 26 5 42 15 45 8 4 15 17 15 31 0 13 7 38 16 56 9 17 17
51 18 76 1 46 16 62 39 42 10 -7 12 -50 10 -168 -1 -87 -6 -169 -9 -183 -4
-14 -8 -58 -9 -98 -1 -41 -7 -78 -12 -83 -15 -15 -78 0 -119 27 -32 22 -74 32
-74 18 0 -16 66 -84 78 -79 7 3 29 -7 48 -21 33 -25 34 -28 18 -45 -16 -18
-18 -17 -56 4 -23 12 -52 28 -66 36 -44 24 -102 97 -108 135 -2 12 -8 40 -12
63 -11 51 -5 211 10 268 32 127 39 257 23 398 -8 65 5 75 43 34z m-2030 -92
c17 -24 32 -55 32 -68 0 -12 6 -29 13 -35 6 -7 13 -32 14 -55 5 -91 17 -142
36 -145 22 -4 24 40 2 58 -13 11 -14 15 -2 29 22 25 27 72 10 98 -8 12 -13 30
-9 38 8 21 45 19 53 -2 3 -10 12 -25 19 -33 8 -10 14 -46 14 -95 1 -44 4 -95
7 -113 9 -52 23 -18 23 56 0 48 3 62 15 62 10 0 15 -10 15 -27 0 -14 8 -35 17
-45 13 -15 14 -21 5 -27 -12 -7 -11 -35 5 -81 7 -23 33 17 33 52 0 18 5 28 15
28 9 0 15 -9 15 -23 0 -13 4 -27 9 -33 5 -5 11 -25 13 -44 3 -31 6 -35 31 -35
33 0 71 -49 57 -75 -5 -9 -5 -22 0 -30 13 -21 -27 -72 -54 -68 -17 2 -22 11
-24 42 -2 21 1 43 7 49 6 6 11 17 11 25 0 10 -8 8 -29 -7 -33 -24 -43 -25 -59
-9 -7 7 -8 17 -2 29 7 13 6 22 -6 33 -21 21 -40 21 -23 0 11 -14 10 -18 -6
-31 -29 -21 -83 -9 -120 27 -21 20 -37 28 -49 24 -12 -4 -31 8 -65 42 l-48 49
-2 100 c-2 132 -9 183 -32 224 -15 26 -17 36 -8 47 18 22 32 16 67 -31z m5016
-30 c19 -28 22 -135 5 -152 -6 -6 -11 -29 -11 -51 1 -26 -4 -42 -14 -46 -8 -3
-14 -19 -14 -40 0 -19 -5 -38 -11 -42 -6 -3 -8 -16 -5 -29 4 -15 -2 -29 -19
-45 -14 -13 -25 -32 -25 -42 0 -21 -28 -69 -47 -81 -7 -4 -13 -24 -13 -42 0
-30 -3 -35 -23 -35 -13 0 -26 2 -29 5 -3 3 9 36 28 73 41 84 64 150 57 168 -2
7 2 23 11 36 9 12 16 41 16 63 0 22 7 53 15 69 8 15 15 54 15 85 1 33 7 64 15
75 8 11 15 28 15 38 0 25 15 22 34 -7z m1228 20 c9 -10 -10 -103 -31 -146 -12
-24 -19 -51 -16 -60 6 -19 -51 -83 -66 -73 -14 8 -11 38 6 60 8 10 15 29 15
41 0 12 5 25 10 28 6 3 10 18 10 33 -1 53 51 137 72 117z m-6881 -52 c5 -15 7
-43 4 -63 -6 -36 -48 -128 -79 -171 -11 -16 -13 -26 -6 -33 14 -14 87 62 96
100 4 16 10 34 14 39 5 6 11 27 15 47 5 25 14 39 27 44 28 9 32 1 29 -67 -3
-62 -11 -81 -76 -162 -16 -20 -35 -37 -40 -37 -6 0 -46 -34 -90 -75 -44 -41
-82 -75 -84 -75 -15 0 -41 -37 -41 -57 0 -33 14 -29 41 12 15 22 45 45 77 61
31 15 86 58 137 108 79 77 90 92 86 123 -1 6 3 14 9 18 5 3 10 21 10 39 0 38
33 77 51 59 14 -14 14 -79 0 -116 -6 -15 -8 -33 -5 -40 6 -17 -107 -126 -169
-162 -27 -15 -51 -34 -54 -42 -3 -7 -18 -20 -34 -29 -20 -10 -29 -22 -29 -39
0 -43 33 -29 116 50 43 41 86 75 94 75 27 0 120 89 120 115 0 12 6 28 14 34 7
6 16 34 18 61 6 58 13 68 36 54 22 -14 25 -87 6 -131 -8 -17 -12 -37 -9 -45 5
-12 -52 -69 -211 -215 -28 -26 -30 -41 -7 -50 11 -4 22 1 32 16 8 12 39 39 70
58 83 53 171 141 171 171 0 14 6 33 14 41 9 10 16 46 18 100 2 47 8 86 13 88
24 7 36 -17 40 -80 3 -55 -1 -81 -25 -149 -16 -46 -30 -90 -30 -98 0 -17 -125
-150 -140 -150 -6 0 -10 -7 -10 -15 0 -8 7 -15 15 -15 8 0 15 7 15 15 0 8 7
15 16 15 16 0 134 107 134 121 0 4 16 43 35 86 l36 77 33 -37 c18 -20 37 -37
43 -37 5 0 22 -11 38 -24 27 -23 28 -26 21 -88 -4 -34 -14 -96 -23 -137 -8
-40 -13 -87 -11 -103 3 -19 0 -32 -9 -35 -7 -3 -13 -17 -13 -32 0 -14 -9 -37
-19 -50 -10 -13 -16 -32 -14 -42 3 -11 -11 -32 -41 -62 -48 -45 -55 -57 -33
-57 20 0 107 97 107 119 0 11 11 31 24 46 31 34 58 142 71 292 7 74 25 107 47
85 6 -6 13 -60 15 -124 5 -169 4 -218 -9 -241 -6 -12 -11 -34 -10 -49 0 -15
-4 -30 -9 -33 -5 -4 -9 -18 -9 -33 0 -15 -7 -36 -15 -46 -8 -11 -15 -30 -15
-43 0 -13 -9 -32 -20 -43 -11 -11 -20 -31 -20 -44 0 -13 -17 -43 -39 -67 -21
-24 -41 -58 -45 -76 -7 -29 -94 -123 -116 -123 -14 0 2 43 30 80 35 46 50 74
50 98 0 10 9 27 20 37 11 10 20 28 20 40 0 13 6 28 14 34 20 17 49 99 41 118
-5 15 -10 13 -30 -12 -13 -17 -24 -38 -25 -47 0 -9 -13 -37 -30 -61 -16 -25
-30 -55 -30 -67 0 -12 -13 -33 -30 -47 -21 -17 -30 -34 -30 -55 0 -20 -9 -37
-28 -53 -15 -12 -38 -45 -51 -71 -30 -61 -59 -94 -83 -94 -13 0 -18 8 -18 27
0 34 30 143 44 163 39 52 58 110 36 110 -20 0 -80 -71 -80 -96 0 -14 -11 -35
-25 -48 -16 -15 -28 -42 -35 -77 -18 -89 -53 -141 -82 -123 -13 8 -2 77 19
117 9 18 17 39 18 47 2 24 23 67 34 75 6 3 11 20 11 37 0 18 7 36 17 44 10 7
14 16 10 20 -11 11 -77 -65 -77 -88 0 -10 -16 -35 -35 -57 -19 -21 -35 -48
-35 -59 0 -12 -5 -24 -10 -27 -23 -14 -50 -86 -50 -133 0 -42 -3 -50 -24 -60
-20 -9 -27 -7 -40 7 -9 10 -14 24 -12 32 3 8 7 34 9 59 3 25 10 65 16 89 7 23
11 45 9 47 -2 2 -16 -8 -32 -22 -21 -20 -26 -32 -22 -50 5 -17 2 -26 -9 -30
-8 -4 -18 -24 -21 -45 -7 -41 -25 -50 -62 -29 -9 5 -33 16 -52 24 -77 35 -130
102 -130 166 0 16 -4 31 -9 35 -16 9 -4 203 19 319 15 75 1 95 -36 53 -19 -22
-22 -32 -14 -47 6 -11 6 -21 1 -24 -16 -10 -24 -78 -25 -211 -2 -111 -4 -130
-18 -133 -21 -4 -26 6 -33 58 -3 24 -7 46 -10 48 -2 3 1 14 7 25 6 12 13 53
15 91 3 39 9 78 14 88 6 10 7 23 4 28 -7 11 10 79 35 135 25 58 32 84 25 95
-9 15 -70 -60 -67 -82 2 -10 -8 -32 -22 -49 -14 -17 -26 -42 -26 -55 0 -13 -4
-32 -10 -42 -5 -9 -14 -44 -20 -77 -15 -85 -16 -88 -24 -106 -4 -10 -6 -25 -4
-35 2 -11 -4 -20 -13 -22 -14 -2 -18 7 -21 50 -4 41 3 75 29 153 18 55 33 112
33 128 0 15 4 27 9 27 9 0 51 78 51 94 0 5 14 24 30 43 17 18 30 40 30 48 0
25 -19 26 -31 3 -6 -13 -29 -42 -50 -65 -22 -24 -39 -53 -39 -66 0 -13 -9 -34
-20 -47 -23 -26 -40 -80 -40 -127 0 -17 -5 -33 -12 -35 -6 -2 -19 -26 -27 -54
-10 -30 -23 -50 -33 -52 -15 -3 -18 5 -18 53 0 30 7 72 15 92 8 19 15 50 15
68 0 18 6 38 14 44 8 7 18 27 22 44 4 18 17 48 30 67 13 19 24 41 24 50 0 8
14 30 30 49 17 18 30 38 30 42 0 22 -27 5 -77 -48 -62 -67 -124 -187 -127
-247 -2 -30 -7 -42 -20 -44 -16 -3 -17 2 -12 55 3 32 7 70 8 85 2 14 6 30 11
34 4 4 7 18 7 30 0 13 5 26 10 29 6 3 10 20 10 37 0 28 24 56 182 214 104 105
194 188 212 194 53 20 90 43 116 72 13 15 34 28 46 28 12 0 25 8 28 18 9 23
31 61 45 75 6 6 11 33 11 59 0 76 58 120 81 61z m5533 -35 c7 -30 -3 -96 -20
-130 -8 -15 -14 -38 -14 -51 0 -12 -4 -27 -10 -33 -5 -5 -12 -36 -16 -69 -4
-34 -15 -70 -26 -84 -10 -13 -18 -34 -18 -46 0 -12 -9 -30 -21 -41 -25 -22
-69 -113 -69 -142 0 -11 -12 -30 -26 -41 -33 -26 -58 -28 -51 -3 21 65 38 100
61 124 16 16 26 38 26 56 0 16 7 35 15 42 8 7 15 22 15 34 0 33 51 174 73 204
6 7 11 27 13 45 9 100 27 157 50 157 6 0 14 -10 18 -22z m1192 -53 c4 -17 1
-32 -10 -44 -9 -10 -16 -29 -16 -43 0 -14 -7 -31 -15 -38 -8 -7 -15 -23 -15
-35 0 -12 -8 -33 -18 -46 -11 -13 -22 -37 -26 -53 -4 -16 -16 -41 -27 -54 -10
-14 -19 -36 -19 -49 0 -35 -18 -63 -40 -63 -23 0 -28 38 -8 58 13 13 35 69 49
127 6 22 14 44 20 50 5 5 9 19 9 31 0 12 7 27 15 34 8 7 15 26 15 42 0 37 47
107 72 108 4 0 10 -11 14 -25z m-168 -116 c9 -14 10 -25 3 -32 -5 -7 -19 -41
-31 -77 -13 -36 -27 -70 -32 -77 -5 -7 -7 -21 -4 -31 4 -11 -1 -29 -12 -43
-10 -13 -24 -39 -31 -58 -6 -19 -18 -43 -27 -52 -9 -10 -14 -24 -11 -32 3 -8
-5 -27 -19 -43 -13 -16 -24 -40 -24 -54 -1 -30 -43 -85 -59 -76 -17 11 -13 45
9 73 11 14 20 36 20 48 0 13 7 25 15 29 9 3 15 18 15 38 0 34 25 110 47 143 7
11 13 31 13 46 0 15 7 32 15 39 9 7 13 20 10 27 -3 8 4 26 15 40 11 14 20 32
20 40 0 21 32 73 45 73 5 0 16 -9 23 -21z m-160 -143 c0 -29 -5 -46 -14 -50
-9 -3 -14 -20 -14 -46 0 -26 -5 -43 -14 -46 -8 -3 -18 -20 -22 -37 -3 -18 -10
-36 -14 -42 -4 -5 -15 -31 -25 -57 -10 -26 -24 -53 -31 -59 -8 -6 -14 -21 -14
-33 0 -12 -13 -37 -30 -56 -19 -23 -29 -46 -30 -67 0 -17 -4 -35 -10 -38 -5
-3 -10 -15 -10 -25 0 -22 -69 -108 -87 -109 -19 -1 -16 34 6 77 10 20 30 64
45 97 15 33 36 77 47 98 11 21 17 42 14 47 -3 5 8 28 25 51 16 23 30 53 30 66
0 13 7 26 15 29 8 4 15 18 15 33 0 14 7 35 15 45 8 11 15 30 15 42 0 12 7 27
15 34 8 7 15 27 15 45 0 38 6 45 36 45 20 0 22 -5 22 -44z m-4908 -15 c0 -10
-18 -35 -41 -55 -37 -34 -44 -37 -92 -34 -59 3 -64 16 -15 33 18 6 46 23 61
37 25 23 37 29 80 37 4 0 7 -7 7 -18z m-667 -253 c3 -18 11 -60 19 -93 11 -51
11 -71 0 -130 -8 -38 -22 -88 -33 -111 -10 -22 -19 -46 -19 -52 0 -7 -13 -26
-30 -44 -16 -17 -30 -40 -30 -52 0 -12 -12 -35 -27 -51 -15 -16 -38 -47 -49
-70 -13 -24 -30 -41 -43 -43 -31 -5 -26 15 19 74 22 29 40 59 40 67 0 7 5 18
11 24 6 6 15 29 20 50 4 21 13 58 19 83 6 25 13 54 16 64 2 11 8 24 14 30 5 5
10 49 10 96 0 94 22 190 44 190 8 0 16 -14 19 -32z m154 -75 c22 -42 24 -106
5 -125 -7 -7 -12 -25 -12 -40 0 -31 -41 -78 -68 -78 -11 0 -13 7 -7 28 3 15
11 65 16 111 8 70 30 141 43 141 2 0 13 -17 23 -37z m1839 -470 c28 -66 4
-254 -36 -278 -5 -3 -10 -18 -10 -32 0 -14 -13 -45 -30 -70 -16 -24 -30 -49
-30 -56 -1 -23 -59 -77 -84 -77 -14 0 -4 43 15 70 12 16 19 36 16 44 -4 9 4
28 17 43 22 28 49 124 61 218 7 59 24 133 37 158 13 26 26 21 44 -20z m86
-174 c18 -10 20 -17 14 -65 -3 -30 -11 -62 -16 -72 -5 -9 -23 -48 -40 -87 -46
-104 -62 -133 -92 -166 -16 -17 -28 -39 -28 -49 0 -20 -53 -70 -75 -70 -25 0
-23 25 5 55 16 17 40 52 54 79 14 27 30 54 35 60 5 6 17 31 27 56 9 25 23 52
31 61 7 8 13 24 13 35 0 10 7 28 15 38 9 12 15 42 15 71 0 66 6 73 42 54z m44
-221 c12 -19 4 -92 -10 -100 -8 -4 -11 -18 -9 -32 3 -16 -2 -31 -15 -44 -11
-11 -22 -33 -24 -48 -2 -19 -13 -34 -31 -44 -26 -14 -29 -14 -43 4 -23 32 -18
65 12 76 22 9 26 15 22 45 -3 27 0 36 17 43 11 5 28 31 39 61 18 51 29 61 42
39z m1698 -47 c27 -30 17 -55 -24 -61 -20 -4 -41 -9 -47 -13 -15 -10 -43 2
-43 18 0 20 59 75 79 75 10 0 26 -9 35 -19z m-1014 -124 c0 -20 -64 -75 -96
-83 -16 -4 -49 -21 -74 -39 -25 -17 -58 -35 -74 -39 -16 -4 -50 -25 -77 -48
-26 -22 -52 -37 -58 -34 -11 7 -47 -9 -69 -31 -17 -16 -52 -17 -52 0 1 25 47
65 110 95 36 18 75 40 86 50 11 10 31 22 45 25 14 4 46 24 70 45 41 36 78 55
124 65 40 9 65 7 65 -6z m1205 -37 c24 -27 6 -48 -35 -42 -17 2 -37 -1 -44 -8
-11 -8 -20 -8 -35 -1 -13 8 -36 8 -73 1 -29 -6 -91 -12 -137 -15 -46 -2 -88
-8 -94 -14 -17 -17 -45 -13 -57 8 -8 16 -17 19 -48 15 l-37 -5 30 25 c24 21
41 26 90 27 106 2 169 7 205 16 19 5 76 10 126 10 79 2 94 -1 109 -17z m-4391
-110 c16 0 36 -6 43 -12 10 -8 18 -7 31 5 13 12 21 14 29 6 6 -6 64 -15 129
-20 180 -13 216 -20 246 -45 16 -12 36 -20 46 -17 13 3 36 -13 76 -54 69 -68
103 -93 131 -93 12 0 32 -13 45 -30 16 -19 35 -29 52 -30 15 0 29 -4 33 -9 16
-27 -68 -30 -117 -5 -14 7 -46 15 -70 17 -24 1 -53 8 -65 15 -12 7 -33 12 -46
12 -14 0 -30 6 -36 14 -6 7 -31 14 -56 14 -24 1 -58 8 -74 17 -17 8 -39 15
-49 15 -11 0 -25 6 -31 14 -6 7 -37 16 -69 20 -31 3 -79 17 -107 30 -83 40
-175 76 -195 76 -10 0 -22 5 -25 10 -3 6 -17 10 -30 10 -23 0 -40 24 -29 42 4
6 28 7 58 4 28 -3 64 -6 80 -6z m4506 -3 c0 -8 -8 -21 -17 -30 -17 -14 -46
-19 -288 -46 -69 -8 -462 -8 -520 0 -17 2 -30 10 -30 18 0 16 7 17 185 27 69
3 130 10 135 14 6 4 60 7 120 6 61 -1 118 2 127 6 9 4 19 4 23 -1 7 -12 86
-12 100 -1 11 9 57 16 123 18 29 2 42 -2 42 -11z m102 -145 c13 -13 -20 -31
-58 -31 -70 0 -143 -7 -149 -13 -11 -11 -903 -10 -910 1 -3 5 -1 12 4 16 5 3
106 6 223 6 139 1 234 6 273 15 39 9 91 11 145 8 47 -3 90 -5 95 -5 6 1 64 4
130 7 66 3 122 7 123 9 8 8 115 -4 124 -13z"/>
<path d="M4767 6103 c-12 -11 -8 -23 8 -23 8 0 15 7 15 15 0 16 -12 20 -23 8z"/>
<path d="M7011 5896 c-9 -10 -3 -20 24 -40 19 -15 35 -36 35 -47 0 -11 6 -22
14 -25 7 -3 16 -23 20 -44 4 -25 14 -43 26 -50 11 -6 20 -19 20 -30 0 -28 50
-151 70 -175 10 -11 21 -35 25 -52 3 -18 20 -47 36 -64 16 -17 29 -34 29 -38
0 -13 80 -85 87 -78 3 4 -7 22 -24 40 -43 46 -63 78 -63 103 0 20 -43 133 -76
197 -8 16 -14 42 -14 57 0 17 -10 40 -24 55 -13 14 -27 41 -30 61 -5 24 -22
49 -57 82 -57 54 -83 66 -98 48z"/>
<path d="M6949 5768 c-4 -39 7 -67 37 -100 19 -21 34 -47 34 -57 0 -11 8 -34
17 -53 30 -60 33 -68 33 -82 0 -7 7 -19 15 -26 8 -7 15 -21 15 -32 0 -11 9
-32 21 -46 54 -70 149 -159 149 -141 0 16 -49 112 -63 124 -7 6 -21 28 -30 50
-10 22 -24 53 -32 68 -8 16 -15 41 -15 57 0 15 -7 33 -15 40 -8 7 -15 25 -15
40 0 15 -6 33 -13 39 -8 6 -20 29 -27 52 -12 34 -21 45 -58 60 -52 22 -52 22
-53 7z"/>
<path d="M6443 4998 c5 -137 7 -147 41 -228 19 -47 36 -91 36 -99 0 -22 81
-94 92 -83 6 6 6 12 -1 16 -6 4 -11 17 -11 29 0 12 -7 36 -16 52 -18 32 -40
116 -54 202 -4 29 -14 69 -20 89 -7 20 -10 51 -7 70 5 27 0 39 -23 64 -15 16
-31 30 -35 30 -3 0 -4 -64 -2 -142z"/>
<path d="M6569 5052 c-1 -4 0 -11 1 -17 1 -5 4 -30 6 -55 8 -104 20 -178 30
-191 6 -8 14 -27 18 -43 4 -17 15 -41 25 -55 10 -14 21 -42 25 -61 3 -19 17
-45 30 -57 13 -12 26 -38 29 -57 3 -19 14 -43 24 -53 11 -11 27 -30 36 -43 14
-20 19 -22 29 -11 11 10 8 17 -13 35 -16 13 -29 39 -33 62 -4 21 -11 44 -16
49 -4 6 -10 21 -13 35 -3 14 -12 43 -21 65 -8 22 -15 56 -16 75 0 19 -7 44
-15 54 -11 15 -15 48 -15 126 0 98 -2 108 -22 127 -22 19 -87 30 -89 15z"/>
<path d="M6744 4998 c-9 -31 -6 -129 6 -143 5 -6 8 -33 6 -61 -2 -30 2 -57 10
-69 8 -11 14 -28 14 -38 0 -25 30 -116 41 -123 5 -3 9 -18 9 -35 0 -22 15 -45
57 -92 76 -83 109 -94 58 -19 -14 20 -25 44 -25 54 0 9 -4 19 -9 22 -15 10
-56 137 -65 201 -1 11 -6 33 -11 48 -11 39 10 60 31 32 9 -11 18 -32 21 -47 3
-15 12 -33 19 -39 8 -6 14 -24 14 -39 0 -15 7 -33 15 -40 8 -7 15 -23 15 -36
0 -13 14 -43 30 -67 17 -25 30 -54 30 -65 0 -26 126 -162 150 -162 26 0 33 15
15 30 -8 7 -15 18 -15 25 0 7 -13 28 -30 46 -16 19 -30 42 -30 52 0 10 -18 55
-40 101 -56 115 -53 142 9 90 17 -14 31 -32 31 -40 0 -22 43 -85 88 -128 23
-22 44 -53 48 -70 8 -37 106 -165 127 -166 13 0 7 28 -7 33 -9 4 -12 14 -9 25
2 11 -2 33 -11 50 -9 17 -16 40 -16 51 0 11 -12 33 -26 48 -14 15 -39 56 -56
90 -16 35 -33 65 -39 68 -5 4 -9 15 -9 26 0 11 -12 43 -26 71 -26 52 -47 146
-45 206 1 28 -4 35 -31 46 -18 8 -38 12 -45 9 -7 -3 -24 5 -39 16 -15 12 -37
21 -49 21 -12 0 -25 3 -29 7 -7 8 -121 30 -158 32 -9 1 -20 -9 -24 -21z"/>
<path d="M4831 4775 c-16 -14 -31 -35 -35 -47 -3 -13 -21 -34 -41 -47 l-35
-24 47 -48 c67 -68 128 -233 104 -278 -16 -28 -14 -44 8 -68 13 -14 22 -43 27
-84 5 -52 11 -68 33 -86 14 -12 38 -22 53 -23 18 0 31 -8 39 -22 6 -13 27 -35
45 -51 18 -15 43 -44 55 -65 13 -20 26 -39 30 -42 4 -3 12 -17 18 -31 11 -31
66 -59 115 -59 19 0 51 -8 71 -17 34 -16 37 -16 68 2 36 21 67 50 67 63 0 11
-88 42 -118 42 -11 0 -25 7 -32 15 -7 8 -25 15 -40 15 -15 0 -33 7 -40 15 -7
9 -21 13 -31 10 -12 -4 -22 1 -30 16 -6 13 -20 32 -31 43 -26 28 -20 60 12 64
17 2 38 -9 64 -33 25 -22 50 -35 67 -35 15 0 31 -5 34 -11 10 -15 154 -4 190
15 17 9 53 16 81 16 38 0 53 4 58 16 8 22 -1 34 -27 34 -24 0 -67 25 -80 47
-10 17 -25 16 -43 -2 -25 -25 -96 -19 -123 9 l-23 24 24 15 c39 25 114 28 143
5 17 -13 41 -19 77 -20 29 0 59 -5 65 -11 9 -6 23 -5 42 3 17 6 35 9 40 5 14
-8 103 54 98 68 -3 8 -22 11 -50 9 -25 -2 -48 1 -51 6 -3 5 -25 7 -49 5 -35
-4 -48 -1 -63 14 -10 11 -46 26 -79 33 -33 7 -64 17 -70 21 -5 4 -27 10 -48
14 -20 4 -40 11 -43 16 -3 5 -15 9 -28 9 -12 0 -31 7 -42 15 -10 8 -31 15 -45
15 -15 0 -32 7 -40 16 -9 11 -22 14 -47 9 -24 -4 -38 -2 -43 7 -13 19 -11 24
16 56 24 28 28 30 89 27 36 -2 75 -9 87 -16 15 -7 45 -9 85 -6 54 5 65 3 76
-12 14 -19 47 -36 63 -32 14 3 97 -21 120 -35 11 -6 41 -15 67 -18 26 -4 68
-18 92 -32 77 -43 61 7 -19 59 -22 14 -60 44 -84 66 -25 23 -49 41 -55 41 -6
0 -45 32 -88 70 -42 39 -83 70 -91 70 -8 0 -20 7 -27 15 -7 8 -18 15 -25 15
-7 0 -18 7 -25 15 -15 18 -145 21 -156 4 -3 -6 -16 -8 -29 -5 -13 3 -36 -1
-51 -9 -16 -8 -36 -15 -44 -15 -16 0 -37 -16 -133 -98 -42 -38 -54 -43 -81
-38 -17 4 -34 10 -38 14 -14 14 -42 155 -41 204 2 57 -15 67 -56 33z"/>
<path d="M6975 4150 c-7 -14 -18 -67 -16 -78 1 -8 -5 -22 -13 -31 -18 -20 -76
-131 -76 -147 0 -13 -69 -155 -85 -174 -7 -8 -15 -28 -19 -45 -11 -45 -54 -85
-92 -85 -17 0 -37 -7 -44 -15 -7 -8 -22 -15 -34 -15 -11 -1 -32 -7 -46 -15
-14 -8 -36 -14 -50 -15 -15 0 -31 -5 -36 -10 -6 -6 -25 -12 -43 -15 -38 -4
-46 -9 -37 -24 8 -12 106 -13 121 -1 17 13 118 16 122 4 6 -19 -26 -44 -57
-44 -16 0 -31 -4 -34 -9 -3 -4 -29 -11 -57 -15 -29 -4 -66 -14 -82 -23 -23
-11 -35 -13 -48 -5 -11 7 -20 7 -26 1 -6 -6 -49 -11 -97 -12 -91 -2 -110 -14
-55 -34 22 -9 38 -9 50 -2 12 6 26 6 37 1 31 -16 84 -22 98 -11 19 15 156 17
161 2 3 -8 -5 -13 -21 -13 -13 0 -27 -4 -30 -9 -9 -14 -109 -21 -293 -22 -157
-1 -213 -9 -166 -23 29 -9 102 -11 109 -3 4 4 17 -2 29 -13 18 -17 37 -20 160
-22 95 -2 140 -7 142 -15 2 -6 -12 -29 -31 -51 -20 -22 -36 -44 -36 -49 0 -6
-9 -18 -20 -28 -11 -10 -20 -26 -20 -35 0 -9 -25 -43 -55 -75 -50 -52 -65 -75
-49 -75 12 0 294 285 294 298 0 21 36 81 65 107 16 16 24 32 21 43 -4 11 13
37 49 77 31 33 55 70 55 81 0 12 11 32 25 45 16 16 25 35 25 56 0 18 6 36 13
40 7 4 24 31 37 58 27 56 35 65 68 65 16 0 22 6 22 24 0 13 9 35 20 49 11 14
20 34 20 44 0 11 13 33 29 49 16 16 45 59 64 94 37 67 74 96 130 102 15 2 27
8 27 13 0 10 -219 15 -225 5z"/>
<path d="M7280 3994 c-14 -7 -34 -13 -46 -14 -32 0 -131 -95 -139 -133 -4 -17
-12 -38 -18 -45 -7 -9 -5 -18 6 -30 15 -17 15 -19 -3 -35 -11 -10 -20 -29 -20
-46 0 -38 -72 -106 -104 -97 -11 3 -28 6 -37 6 -9 0 -21 12 -28 27 l-12 26
-39 -39 c-24 -23 -40 -49 -40 -64 0 -14 -14 -41 -30 -60 -17 -19 -30 -42 -30
-52 0 -9 -13 -32 -28 -50 -16 -18 -32 -45 -36 -60 -3 -15 -31 -54 -61 -86 -35
-38 -55 -68 -55 -83 0 -18 -37 -61 -135 -159 -126 -126 -150 -160 -125 -175
14 -9 29 2 112 80 79 75 134 140 164 194 10 18 44 60 75 92 31 32 59 71 62 86
3 16 22 46 41 68 20 22 41 56 46 76 11 40 43 75 59 64 16 -9 13 -31 -9 -72
-11 -21 -20 -44 -20 -51 0 -8 -13 -31 -30 -52 -34 -43 -36 -53 -15 -70 11 -9
23 -3 62 33 54 51 107 64 140 35 28 -24 145 -23 167 1 11 12 25 17 37 14 29
-8 125 88 133 132 4 17 20 44 36 60 39 37 39 73 1 109 -29 27 -32 28 -103 22
-77 -7 -86 -4 -106 32 -21 38 7 76 144 197 28 25 56 45 61 45 5 0 27 -16 48
-37 36 -35 37 -38 31 -89 -6 -52 8 -85 20 -47 3 10 11 28 16 40 6 12 8 43 5
68 -4 38 -13 55 -48 91 -24 24 -50 42 -57 39 -7 -3 -25 1 -40 9 -23 12 -31 12
-52 0z"/>
<path d="M4910 3642 c0 -14 11 -21 26 -15 8 3 11 9 8 14 -7 11 -34 12 -34 1z"/>
<path d="M4970 3578 c0 -25 7 -49 17 -60 14 -16 14 -22 3 -43 -11 -21 -11 -29
0 -52 33 -67 66 -82 75 -35 4 15 10 35 16 44 15 30 11 125 -7 140 -8 7 -24 21
-35 31 -10 9 -30 17 -44 17 -23 0 -25 -4 -25 -42z"/>
<path d="M5580 3302 c0 -13 23 -32 37 -32 11 0 11 5 3 20 -10 19 -40 28 -40
12z"/>
<path d="M5697 3263 c-8 -8 -9 -57 -1 -65 6 -7 84 42 84 53 0 16 -69 27 -83
12z"/>
<path d="M5808 3190 c-33 -32 -36 -39 -25 -54 12 -16 17 -14 70 29 32 25 55
51 52 56 -13 20 -61 5 -97 -31z"/>
<path d="M6015 3183 c-16 -9 -41 -26 -55 -38 -14 -12 -39 -30 -57 -41 -34 -19
-47 -39 -37 -56 8 -13 57 0 67 18 4 8 18 14 30 14 24 0 117 86 117 108 0 16
-28 14 -65 -5z"/>
<path d="M6150 3162 c-14 -9 -50 -42 -80 -72 -30 -30 -66 -63 -80 -72 -25 -16
-25 -16 -5 -32 11 -8 23 -16 26 -16 4 0 47 41 97 91 56 56 89 96 85 105 -7 18
-13 18 -43 -4z"/>
<path d="M6255 3110 c-3 -11 -15 -25 -26 -30 -20 -11 -26 -30 -9 -30 21 0 70
44 70 62 0 24 -27 23 -35 -2z"/>
<path d="M6160 3020 c-14 -16 -35 -29 -46 -30 -12 0 -29 -11 -38 -25 -15 -22
-15 -25 1 -34 14 -7 28 2 70 45 49 50 64 74 45 74 -4 0 -19 -13 -32 -30z"/>
<path d="M5982 2306 c-12 -13 -25 -37 -28 -54 -3 -17 -21 -46 -40 -66 -19 -20
-34 -46 -34 -60 0 -16 -22 -47 -66 -93 -103 -108 -106 -111 -99 -123 4 -7 -5
-24 -21 -40 -102 -102 -108 -115 -46 -102 47 10 102 60 102 92 0 16 15 41 41
69 22 24 43 57 46 72 3 16 15 39 27 51 12 13 33 45 46 73 14 27 37 61 51 75
15 14 29 42 33 62 4 20 12 39 19 41 8 3 9 8 2 15 -7 8 -17 4 -33 -12z"/>
<path d="M5777 2152 c-9 -10 -28 -40 -42 -67 -15 -27 -44 -67 -66 -89 -24 -23
-38 -45 -34 -54 3 -8 -6 -25 -20 -38 -26 -24 -33 -54 -12 -54 17 0 57 44 57
63 0 8 7 17 15 21 8 3 15 15 15 26 0 27 28 70 46 70 8 0 14 4 14 9 0 5 11 22
23 38 31 37 51 93 33 93 -7 0 -20 -8 -29 -18z"/>
<path d="M4392 1968 c2 -12 11 -24 21 -26 14 -3 18 1 15 20 -2 12 -11 24 -21
26 -14 3 -18 -1 -15 -20z"/>
<path d="M4750 1973 c0 -10 7 -29 15 -43 8 -14 17 -32 21 -40 7 -14 72 -92 96
-115 5 -5 25 -25 43 -43 33 -34 33 -34 45 -12 12 23 11 25 -42 94 -13 16 -48
55 -79 85 -31 31 -59 64 -62 74 -4 9 -13 17 -22 17 -8 0 -15 -8 -15 -17z"/>
<path d="M5467 1912 c-42 -42 -77 -84 -77 -93 0 -9 -7 -22 -15 -29 -16 -14
-21 -60 -5 -60 5 0 28 24 52 53 24 29 56 62 73 73 16 10 34 29 41 41 6 13 18
31 27 41 10 10 17 26 17 35 0 34 -37 14 -113 -61z"/>
<path d="M5530 1819 c-14 -17 -35 -41 -47 -54 -27 -26 -29 -35 -8 -35 20 0
105 85 105 104 0 26 -24 18 -50 -15z"/>
<path d="M5296 1826 c-39 -23 -66 -54 -66 -75 0 -11 6 -21 13 -21 16 0 87 71
87 87 0 18 -13 22 -34 9z"/>
<path d="M2679 6059 c-8 -5 -28 -9 -45 -9 -19 0 -34 -6 -38 -15 -3 -9 -19 -15
-41 -15 -24 0 -35 -4 -35 -15 0 -17 59 -21 76 -6 5 5 61 11 124 13 94 4 116 7
118 20 2 11 -7 18 -30 22 -64 12 -115 14 -129 5z"/>
<path d="M2520 5890 c-8 -5 -26 -8 -40 -5 -19 4 -35 -3 -63 -27 -52 -46 -48
-56 19 -52 30 2 60 1 66 -2 5 -4 -4 -21 -23 -40 -34 -35 -33 -57 3 -35 11 7
46 15 77 18 31 3 63 12 72 19 9 8 18 11 22 8 10 -11 57 6 57 20 0 7 -20 32
-46 55 -35 34 -54 44 -87 47 -23 2 -49 0 -57 -6z"/>
<path d="M1937 5773 c-4 -3 -19 -7 -34 -8 -16 -1 -53 -12 -83 -24 -30 -11 -64
-21 -76 -21 -12 0 -27 -7 -34 -15 -7 -8 -19 -15 -26 -15 -25 0 -15 -27 14 -38
37 -15 63 -17 91 -8 14 5 27 4 34 -3 6 -6 45 -11 87 -11 59 0 80 5 100 20 14
11 33 20 42 20 10 0 32 8 50 18 18 11 50 22 71 26 38 7 50 29 22 40 -17 6 -60
-8 -70 -23 -8 -14 -82 -14 -91 0 -3 6 -1 16 5 22 6 6 11 15 11 19 0 10 -104
11 -113 1z"/>
<path d="M1525 5741 c-6 -11 9 -23 19 -14 9 9 7 23 -3 23 -6 0 -12 -4 -16 -9z"/>
<path d="M2720 5730 c0 -5 -16 -10 -34 -10 -34 0 -98 -43 -79 -52 20 -11 284
24 281 37 -6 26 -168 50 -168 25z"/>
<path d="M2295 5695 c-16 -14 -40 -25 -53 -25 -12 0 -25 -7 -28 -15 -4 -9 -19
-15 -38 -15 -17 0 -38 -5 -46 -10 -13 -9 -12 -12 4 -25 27 -21 65 -19 104 5
18 11 40 20 49 20 8 0 31 9 49 21 20 12 42 18 53 14 13 -4 24 1 35 17 16 22
15 23 -6 30 -49 13 -93 7 -123 -17z"/>
<path d="M2480 3356 c0 -14 24 -29 33 -19 3 3 3 11 0 19 -7 18 -33 18 -33 0z"/>
<path d="M2415 3346 c-10 -7 -16 -18 -14 -24 3 -7 12 -5 28 7 13 10 19 21 14
24 -6 4 -18 0 -28 -7z"/>
<path d="M3400 4741 c-8 -5 -35 -12 -60 -16 -52 -8 -111 -44 -130 -80 -7 -14
-11 -26 -9 -28 106 -79 137 -122 143 -202 5 -61 11 -75 31 -75 19 0 45 -39 45
-68 0 -13 5 -33 12 -45 6 -12 10 -45 9 -72 -2 -42 3 -57 28 -92 35 -49 64 -67
92 -58 12 4 27 1 37 -8 32 -29 216 -24 282 8 67 31 130 74 130 87 0 23 42 66
70 72 43 8 39 47 -5 57 -45 11 -119 39 -129 50 -6 5 -25 9 -43 9 -17 0 -36 6
-40 13 -11 18 -106 69 -124 67 -25 -4 -36 0 -59 20 -13 11 -31 20 -40 20 -9 0
-26 10 -38 23 l-22 23 38 37 c20 20 52 40 70 43 18 4 35 11 38 15 8 14 40 10
54 -6 7 -8 24 -15 39 -15 19 0 41 -14 71 -45 24 -25 51 -45 59 -45 8 0 23 -8
34 -17 18 -17 20 -17 33 2 9 11 12 29 9 40 -4 11 -10 35 -13 53 -9 44 -67 102
-102 102 -15 0 -33 7 -40 15 -7 8 -21 15 -31 15 -10 0 -34 9 -53 21 -19 11
-40 18 -46 14 -6 -4 -17 -2 -23 4 -18 14 -129 -3 -175 -27 -20 -10 -49 -22
-64 -26 -15 -3 -32 -15 -38 -26 -8 -15 -21 -20 -53 -20 -50 0 -67 13 -67 50 0
23 10 32 58 57 31 17 58 38 60 47 4 17 -14 21 -38 7z m477 -532 c6 -6 26 -14
45 -18 18 -4 34 -14 36 -22 4 -21 -73 -99 -97 -99 -10 0 -53 -7 -95 -16 -86
-18 -87 -17 -132 47 l-27 40 24 24 c21 21 35 25 97 27 41 1 80 7 90 14 21 16
45 17 59 3z"/>
<path d="M4130 4604 c0 -9 9 -18 20 -21 11 -3 20 -10 20 -16 0 -6 3 -7 6 -4 8
8 -23 57 -36 57 -6 0 -10 -7 -10 -16z"/>
<path d="M3386 3853 c-3 -3 -6 -24 -6 -45 0 -36 2 -38 30 -38 33 0 40 19 15
40 -8 7 -15 18 -15 26 0 15 -15 26 -24 17z"/>
<path d="M2693 3137 c-60 -59 -63 -64 -67 -119 -3 -31 -10 -67 -16 -79 -9 -15
-9 -24 -1 -32 15 -15 14 -50 -1 -65 -9 -9 -9 -15 0 -24 9 -9 13 -7 19 8 4 10
16 26 26 34 25 21 47 86 40 120 -3 15 0 31 6 34 6 4 11 20 11 36 0 16 4 31 9
34 4 3 11 19 14 36 4 16 15 37 26 47 18 15 20 34 3 32 -4 0 -35 -28 -69 -62z"/>
<path d="M2808 3139 c-34 -36 -48 -60 -48 -80 0 -15 -5 -31 -10 -34 -17 -10
-41 -76 -32 -89 4 -6 8 -24 10 -41 7 -87 10 -102 20 -126 12 -29 36 -42 63
-34 18 6 59 -21 59 -40 0 -13 126 -145 153 -162 12 -7 29 -15 37 -19 8 -4 31
-20 51 -36 20 -15 46 -28 57 -28 11 0 25 -6 31 -14 7 -8 33 -21 57 -30 50 -17
184 -141 184 -170 0 -9 11 -21 25 -26 14 -5 30 -21 35 -34 20 -53 60 -43 60
15 0 26 5 42 15 45 17 7 21 59 5 69 -5 3 -10 17 -10 30 0 13 -13 39 -28 57
-16 18 -40 56 -53 83 -13 28 -34 65 -46 84 -13 19 -23 41 -23 50 0 10 -6 26
-14 36 -13 18 -14 18 -24 -2 -8 -14 -8 -31 -2 -54 7 -25 6 -37 -3 -47 -12 -11
-20 -6 -50 28 -21 22 -37 47 -37 55 0 23 -49 97 -60 90 -6 -3 -10 -22 -10 -41
0 -19 -4 -34 -9 -34 -16 0 -61 53 -68 79 -8 37 -33 85 -48 93 -7 5 -11 17 -8
27 5 20 -12 61 -26 61 -11 0 -12 -68 -1 -95 17 -46 28 -110 20 -119 -14 -14
-35 9 -48 53 -7 21 -19 44 -27 51 -8 7 -15 22 -15 34 0 12 -11 38 -25 58 -14
21 -22 44 -19 52 4 10 -5 31 -20 50 -21 29 -26 45 -26 95 0 33 -4 63 -10 66
-5 3 -10 15 -10 26 0 32 -22 22 -72 -32z"/>
<path d="M2804 2423 c-4 -15 -17 -46 -30 -69 -13 -22 -24 -48 -24 -57 0 -19
-94 -97 -116 -97 -8 0 -34 -18 -58 -40 -25 -23 -53 -40 -67 -40 -26 0 -131
-101 -149 -143 -6 -12 -15 -30 -22 -39 -7 -9 -9 -20 -6 -24 11 -10 28 6 28 26
0 10 7 20 15 24 8 3 15 11 15 19 0 17 98 107 117 107 8 0 26 9 40 20 14 11 34
20 45 20 24 0 60 19 71 36 4 7 28 20 55 30 53 19 92 57 92 87 0 12 10 31 22
44 19 20 20 28 12 70 -10 54 -30 67 -40 26z"/>
<path d="M2874 2393 c16 -59 17 -84 2 -105 -9 -12 -16 -32 -16 -43 0 -30 -109
-125 -143 -125 -8 0 -20 -6 -26 -14 -7 -8 -23 -17 -36 -20 -16 -4 -25 -13 -25
-26 0 -29 6 -28 110 25 142 72 163 89 183 153 18 56 19 95 6 140 -8 25 -16 32
-35 32 -19 0 -24 -4 -20 -17z"/>
<path d="M2996 2318 c-3 -13 -6 -40 -6 -61 0 -46 -23 -91 -64 -127 -16 -14
-37 -32 -46 -41 -10 -9 -33 -19 -53 -23 -19 -4 -40 -13 -47 -21 -7 -8 -23 -15
-35 -15 -26 0 -118 -71 -107 -82 10 -10 88 19 121 44 13 10 32 18 43 18 24 0
78 28 78 40 0 6 7 10 15 10 23 0 161 98 189 135 22 28 23 35 11 45 -8 7 -17
28 -21 47 -5 24 -14 37 -31 44 -35 13 -40 12 -47 -13z"/>
<path d="M3420 2061 c-31 -31 -37 -46 -20 -56 6 -3 10 -19 10 -34 0 -15 7 -36
15 -47 8 -10 15 -33 15 -50 0 -17 6 -36 13 -43 9 -7 13 -32 11 -80 -2 -60 -6
-74 -28 -98 -14 -15 -26 -36 -26 -46 0 -10 -7 -29 -16 -43 -9 -13 -14 -27 -11
-31 9 -8 87 78 87 97 0 9 7 25 15 36 8 10 15 31 15 45 0 14 7 34 15 45 19 24
19 74 0 98 -9 12 -15 41 -15 71 0 30 -6 59 -15 71 -8 10 -15 33 -15 51 0 45
-15 49 -50 14z"/>
<path d="M2496 1979 c-26 -29 -44 -55 -40 -58 4 -3 9 0 11 7 3 6 9 12 15 12
11 0 88 73 88 84 0 20 -34 -1 -74 -45z"/>
<path d="M2422 1899 c2 -6 8 -10 13 -10 5 0 11 4 13 10 2 6 -4 11 -13 11 -9 0
-15 -5 -13 -11z"/>
<path d="M3349 1843 c-1 -4 0 -12 1 -18 9 -36 5 -93 -6 -110 -8 -11 -14 -29
-14 -41 0 -11 -9 -29 -20 -39 -11 -10 -20 -22 -20 -28 0 -17 -34 -80 -57 -105
-13 -14 -20 -28 -17 -31 4 -3 9 0 11 7 3 6 9 12 14 12 5 0 37 29 72 65 59 61
64 69 74 132 7 38 8 72 3 78 -4 5 -10 25 -12 44 -3 30 -26 57 -29 34z"/>
<path d="M3356 1503 c-12 -12 -6 -43 9 -43 8 0 15 9 15 19 0 21 -13 34 -24 24z"/>
<path d="M2270 1455 c0 -19 4 -35 10 -35 12 0 24 45 15 59 -13 22 -25 10 -25
-24z"/>
<path d="M3756 2405 c-17 -25 -16 -55 1 -55 5 0 14 14 22 31 18 41 0 60 -23
24z"/>
<path d="M959 2532 c-13 -10 -42 -27 -64 -37 -54 -27 -155 -125 -128 -125 11
0 30 11 43 25 14 14 35 25 50 25 16 0 37 12 55 30 16 17 34 30 39 30 17 0 58
48 51 60 -9 14 -19 13 -46 -8z"/>
<path d="M1627 2394 c3 -8 1 -25 -5 -37 -12 -25 -23 -69 -26 -109 -2 -15 -8
-33 -13 -40 -6 -7 -14 -35 -18 -63 -4 -27 -13 -59 -20 -70 -6 -11 -15 -38 -19
-60 -4 -22 -11 -44 -15 -50 -14 -18 -21 -75 -10 -75 6 0 13 9 16 19 3 11 11
22 18 25 7 2 15 17 19 31 4 15 18 44 32 64 13 19 24 45 24 57 0 12 7 27 15 34
10 8 15 30 15 62 0 27 5 58 11 69 6 11 12 46 15 78 4 54 3 58 -20 69 -21 9
-24 9 -19 -4z"/>
<path d="M777 2073 c-4 -3 -7 -17 -7 -30 0 -33 24 -24 28 10 3 26 -7 35 -21
20z"/>
<path d="M746 2003 c-12 -12 -6 -33 9 -33 8 0 15 6 15 14 0 17 -14 28 -24 19z"/>
<path d="M7190 6665 c0 -10 7 -15 18 -13 21 4 19 22 -2 26 -10 2 -16 -3 -16
-13z"/>
<path d="M7270 6666 c0 -28 29 -36 156 -42 71 -3 146 -12 167 -20 41 -15 77
-18 77 -6 -1 4 -9 18 -20 31 -17 20 -29 23 -82 24 -35 0 -80 6 -102 13 -53 19
-196 19 -196 0z"/>
<path d="M6295 6650 c-7 -11 3 -17 47 -25 20 -4 44 -2 55 3 16 10 15 11 -7 16
-65 13 -90 15 -95 6z"/>
<path d="M6470 6641 c-33 -7 -32 -7 23 -15 60 -8 74 -5 62 13 -7 12 -30 12
-85 2z"/>
<path d="M6596 6643 c-11 -11 -6 -23 9 -23 8 0 15 4 15 9 0 13 -16 22 -24 14z"/>
<path d="M6641 6631 c-9 -17 -9 -20 3 -15 8 3 23 1 34 -5 15 -8 23 -7 32 4 16
19 12 23 -27 31 -25 5 -33 2 -42 -15z"/>
<path d="M7764 6639 c-11 -18 56 -79 88 -79 17 0 28 5 28 13 0 18 -43 57 -63
57 -9 0 -19 5 -22 10 -8 13 -22 13 -31 -1z"/>
<path d="M6956 6613 c-11 -11 -6 -23 9 -23 8 0 15 4 15 9 0 13 -16 22 -24 14z"/>
<path d="M8031 6611 c-36 -23 33 -99 92 -101 24 0 15 31 -22 77 -26 33 -45 40
-70 24z"/>
<path d="M6828 6603 c18 -2 45 -2 60 0 15 2 0 4 -33 4 -33 0 -45 -2 -27 -4z"/>
<path d="M7040 6580 c0 -9 79 -19 97 -12 7 2 11 8 8 12 -7 11 -105 11 -105 0z"/>
<path d="M7190 6577 c0 -11 12 -18 38 -22 20 -3 48 -8 62 -12 14 -3 57 -7 95
-10 39 -3 76 -10 83 -16 16 -13 52 18 37 32 -15 13 -92 29 -104 22 -10 -7 -81
0 -168 14 -36 6 -43 5 -43 -8z"/>
<path d="M6736 6551 c-12 -19 66 -29 92 -12 10 6 4 10 -18 15 -45 8 -68 8 -74
-3z"/>
<path d="M7605 6540 c-11 -5 -32 -9 -47 -9 -43 -1 -33 -18 15 -26 23 -4 63
-14 88 -23 25 -8 53 -13 62 -9 28 11 19 41 -19 60 -38 18 -67 21 -99 7z"/>
<path d="M7285 6490 c-10 -16 50 -42 118 -51 38 -5 75 -13 81 -18 6 -5 41 -12
78 -16 37 -3 70 -11 73 -16 4 -5 17 -9 29 -9 13 0 29 -7 36 -15 7 -8 20 -15
29 -15 9 0 22 -5 29 -12 9 -9 17 -9 36 2 23 12 29 10 63 -12 27 -18 48 -24 69
-21 21 3 55 -7 114 -36 47 -22 89 -41 94 -41 5 0 15 8 22 18 13 16 15 16 25
-1 5 -9 15 -15 20 -11 13 8 -22 41 -93 87 -40 26 -68 37 -95 37 -21 0 -58 7
-83 16 -48 17 -88 25 -135 28 -16 1 -37 5 -45 9 -8 4 -31 6 -50 6 -57 0 -198
25 -212 39 -6 6 -29 12 -51 12 -21 0 -46 4 -55 9 -26 13 -91 21 -97 11z"/>
<path d="M7760 6485 c0 -9 5 -15 11 -13 6 2 11 8 11 13 0 5 -5 11 -11 13 -6 2
-11 -4 -11 -13z"/>
<path d="M7930 6483 c-25 -2 -51 -6 -59 -8 -23 -9 6 -33 47 -38 20 -2 52 -10
69 -18 26 -10 35 -11 45 -1 9 9 7 18 -9 39 -22 30 -26 31 -93 26z"/>
<path d="M8120 6442 c0 -10 13 -31 29 -46 24 -23 34 -26 65 -20 20 3 35 11 33
17 -4 12 -96 65 -114 66 -7 1 -13 -7 -13 -17z"/>
<path d="M8253 6251 c3 -50 22 -71 62 -71 18 0 44 -9 59 -21 52 -41 64 14 17
79 -36 49 -48 57 -66 42 -9 -7 -15 -8 -20 0 -3 5 -17 10 -30 10 -22 0 -24 -4
-22 -39z"/>
<path d="M8777 5173 c-11 -10 -8 -59 5 -90 6 -15 13 -50 14 -78 8 -128 24
-258 34 -270 6 -8 11 -45 11 -84 0 -39 5 -73 10 -77 6 -3 10 -34 10 -67 -1
-98 4 -146 16 -158 9 -9 13 -6 17 12 37 167 44 257 22 300 -9 18 -16 57 -16
88 -1 33 -7 64 -15 75 -9 11 -15 41 -15 69 0 26 -5 58 -12 70 -7 12 -14 42
-15 67 -2 24 -10 54 -18 67 -8 12 -15 36 -15 53 0 28 -17 40 -33 23z"/>
<path d="M25 1490 c-7 -12 2 -30 16 -30 12 0 12 27 0 35 -5 3 -12 1 -16 -5z"/>
<path d="M147 1234 c-10 -10 12 -44 29 -44 9 0 27 -9 41 -20 16 -12 34 -18 45
-14 11 3 20 0 24 -10 3 -9 10 -16 15 -16 4 0 20 -11 34 -24 14 -13 38 -26 53
-29 15 -3 46 -24 69 -46 26 -26 51 -41 66 -41 13 0 30 -7 37 -15 7 -9 35 -25
61 -36 27 -12 54 -27 60 -35 6 -8 20 -14 29 -14 16 0 80 -27 150 -64 14 -8 39
-17 57 -20 17 -4 37 -14 44 -22 15 -18 59 -18 59 0 0 19 -39 46 -66 46 -12 0
-27 7 -34 15 -7 8 -23 15 -36 15 -12 0 -29 7 -37 15 -25 25 -148 84 -163 78
-8 -3 -26 6 -40 21 -15 14 -42 30 -60 35 -19 5 -46 19 -60 30 -15 12 -34 21
-44 21 -9 0 -32 14 -50 30 -18 17 -43 30 -55 30 -12 0 -34 9 -48 20 -14 11
-28 20 -32 20 -3 0 -13 7 -21 15 -9 8 -23 15 -33 15 -10 0 -28 11 -41 25 -23
25 -41 31 -53 19z"/>
<path d="M390 763 c0 -8 50 -41 84 -55 10 -5 31 -18 48 -29 21 -16 33 -18 40
-11 8 8 18 4 34 -13 13 -14 31 -25 42 -25 10 0 33 -11 52 -25 19 -14 43 -25
54 -25 12 0 32 -9 46 -20 14 -11 32 -20 41 -20 9 0 22 -6 28 -14 7 -8 27 -18
44 -21 57 -12 64 -15 75 -40 10 -22 18 -25 62 -25 43 0 52 -3 59 -23 8 -22 73
-47 120 -47 10 0 24 -6 30 -13 6 -8 37 -22 68 -32 32 -9 66 -21 75 -26 10 -5
30 -9 44 -9 14 0 39 -11 56 -25 38 -32 99 -37 146 -13 34 17 27 25 -27 33 -28
4 -55 13 -62 21 -6 8 -26 14 -44 14 -19 0 -39 8 -50 20 -11 12 -31 20 -51 20
-18 0 -36 4 -39 10 -3 5 -16 10 -29 10 -12 0 -33 11 -46 25 -14 15 -35 25 -50
25 -15 0 -38 8 -51 18 -13 10 -31 22 -39 26 -8 4 -26 13 -40 21 -14 8 -37 15
-52 15 -18 0 -33 9 -45 26 -14 21 -22 25 -47 20 -23 -5 -35 -1 -56 19 -15 14
-37 27 -49 30 -13 2 -29 9 -36 15 -7 6 -20 7 -29 4 -11 -4 -29 2 -46 15 -16
11 -37 21 -47 21 -10 0 -29 7 -41 16 -13 9 -32 14 -42 11 -11 -3 -27 4 -41 19
-12 13 -32 24 -43 24 -12 0 -36 9 -54 20 -32 19 -92 28 -92 13z"/>
<path d="M7060 710 c-22 -17 -23 -19 -7 -26 23 -8 61 -1 117 25 l45 20 -65 0
c-49 0 -71 -4 -90 -19z"/>
<path d="M490 579 c0 -6 9 -13 20 -16 11 -3 20 -9 20 -14 0 -5 34 -27 75 -50
41 -22 75 -45 75 -50 0 -5 20 -9 44 -9 30 0 46 -5 50 -15 3 -8 16 -15 29 -15
13 0 32 -10 43 -21 22 -25 117 -69 148 -69 12 0 31 -7 43 -15 12 -8 29 -12 38
-9 9 4 34 -2 56 -11 51 -23 69 -10 38 29 -15 20 -25 24 -32 17 -17 -17 -42
-13 -62 9 -10 11 -28 20 -39 20 -12 0 -30 7 -40 15 -11 8 -30 15 -43 15 -16 0
-27 8 -33 24 -10 26 -38 40 -63 31 -8 -4 -29 1 -46 9 -16 9 -37 16 -46 16 -9
0 -28 9 -42 20 -14 11 -33 20 -41 20 -8 0 -30 11 -48 25 -18 14 -41 25 -52 25
-11 0 -25 7 -32 15 -14 17 -60 20 -60 4z"/>
<path d="M6730 545 c-14 -7 -33 -16 -43 -19 -35 -11 -7 -24 55 -25 65 -1 108
17 108 44 0 20 -85 20 -120 0z"/>
<path d="M5944 422 c-22 -2 -35 -11 -43 -28 -6 -14 -11 -26 -11 -28 0 -6 176
3 202 11 46 14 32 28 -34 33 -35 3 -67 7 -73 10 -5 3 -24 4 -41 2z"/>
<path d="M6545 420 c-3 -5 -34 -10 -67 -10 -78 0 -178 -29 -178 -51 0 -15 173
-1 209 17 14 8 35 14 47 14 11 0 29 9 39 20 18 20 17 20 -13 20 -17 0 -34 -4
-37 -10z"/>
<path d="M5565 294 c-11 -3 -31 -7 -44 -10 -18 -4 -21 -8 -13 -16 15 -15 230
-14 245 1 6 6 8 13 5 17 -8 7 -166 14 -193 8z"/>
<path d="M6040 275 c-7 -8 -20 -15 -29 -15 -9 0 -23 -5 -31 -10 -10 -7 14 -9
80 -6 181 7 241 39 84 44 -72 2 -94 0 -104 -13z"/>
<path d="M5203 203 c-13 -2 -23 -11 -23 -19 0 -16 40 -20 150 -15 76 4 90 9
65 28 -18 12 -138 16 -192 6z"/>
<path d="M3085 191 c-6 -11 9 -23 19 -14 9 9 7 23 -3 23 -6 0 -12 -4 -16 -9z"/>
<path d="M5700 156 c0 -17 92 -27 128 -14 41 14 13 28 -59 28 -52 0 -69 -3
-69 -14z"/>
</g>
</svg>
